# Blender v3.2.0 OBJ File: 'Windmill.blend'
# www.blender.org
mtllib Base1.mtl
o Terrain1.002_Plane.011
v -1.640625 -6.630943 10.007815
v -2.953125 -6.630943 9.679690
v -8.367188 -6.630943 5.742189
v 10.007812 -6.630943 -1.640623
v -6.726562 -6.630943 -7.546873
v -6.562500 -6.630943 -7.710935
v -3.445312 -6.630943 -9.515623
v -0.656249 -6.630943 -10.108922
v -3.445312 -6.630943 -9.535022
v 3.281250 -6.630943 -9.584790
v -3.982268 -6.630943 -9.351562
v -5.085938 -6.630943 -8.761638
v 6.363738 -6.630943 -7.874998
v -6.562500 -6.630943 -7.711878
v -8.459003 -6.630943 -5.652126
v 8.761638 -6.630943 -5.085936
v -9.933165 -6.630943 -2.132810
v 9.783860 -6.630943 2.625002
v 8.385089 -6.630943 5.742190
v 5.764000 -6.630943 8.367190
v 2.296875 -6.630943 9.883396
v -1.640625 -6.630943 10.011970
v -5.906250 -6.630943 8.250449
v -9.883395 -6.630943 2.296877
v -2.953125 -7.564391 9.679690
v -3.937500 -7.564391 9.351565
v -8.367188 -7.564391 5.742189
v 10.007812 -7.564391 -1.640623
v -7.710937 -7.564391 -6.562498
v -7.546875 -7.564391 -6.726561
v 5.742187 -7.564391 -8.367187
v -2.953125 -7.564391 -9.679686
v -1.640625 -7.564391 -10.007810
v 1.682844 -7.564391 -10.007811
v -3.773437 -7.564391 -9.435486
v 3.609375 -7.564391 -9.485254
v -4.921874 -7.564391 -8.849331
v 6.563650 -7.564391 -7.710935
v 5.742187 -7.564391 -8.385093
v -7.218750 -7.564391 -7.163379
v 9.679686 -7.564391 -2.968414
v 8.937025 -7.564391 -4.757810
v -8.586252 -7.564391 -5.414060
v 10.044287 -7.564391 1.312502
v 8.937022 -7.564391 4.757815
v 6.563644 -7.564391 7.710939
v 3.445312 -7.564391 9.535022
v -0.820312 -7.564391 10.092763
v -5.652124 -7.564391 8.459003
v -3.982260 -7.564391 9.351564
v -8.250447 -7.564391 5.906252
v -9.024715 -7.564391 4.593752
v -9.783860 -7.564391 2.625002
v -9.995811 -7.564391 -1.804686
vn 0.5793 0.0253 0.8148
vn -0.7034 -0.1088 -0.7024
vn -0.6242 0.0036 0.7813
vn 0.0000 0.1077 0.9942
vn -0.3962 -0.1493 -0.9060
vn -0.7774 0.0736 0.6247
vn 0.2013 -0.0455 0.9785
vn 0.9295 0.0652 0.3630
vn 0.8179 -0.5754 0.0000
vn -0.9708 0.0000 0.2399
vn 0.8148 0.0000 -0.5798
vn 0.7005 0.0314 -0.7130
vn 0.9327 -0.0270 -0.3596
vn -0.9229 -0.0388 0.3830
vn -0.9071 -0.1071 -0.4070
vn 0.0000 -1.0000 -0.0000
vn 0.9949 0.0894 -0.0476
vn 0.4545 0.0216 0.8905
vn 0.0000 0.3316 -0.9434
vn -0.0324 -0.1144 -0.9929
vn -0.2618 0.0109 0.9651
vn -0.4974 0.1717 -0.8503
vn 0.4703 -0.0685 -0.8798
vn 0.4714 0.0000 0.8819
vn -0.4574 -0.0662 0.8868
vn -0.1288 -0.2179 0.9674
vn 0.0000 1.0000 0.0000
vn -0.9999 0.0000 0.0124
vn 0.7134 -0.0338 -0.6999
vn 0.2454 0.0000 -0.9694
vn -0.1269 0.2060 -0.9703
vn -0.7574 -0.0478 0.6512
vn 0.2398 -0.1490 0.9593
vn 0.8678 0.0000 -0.4969
vn 0.9974 -0.0709 -0.0112
vn 0.9220 -0.0272 0.3862
vn 0.7334 -0.1112 0.6706
vn 0.2853 0.0019 0.9584
vn -0.7644 0.1959 -0.6143
vn 0.7963 0.0896 0.5982
vn 0.2921 -0.0206 0.9562
vn 0.7945 0.0461 0.6055
vn -0.9394 0.1624 -0.3019
vn -0.9783 -0.2007 -0.0514
vn 0.5907 0.0576 0.8048
vn -0.8324 0.5542 0.0000
vn 0.7047 -0.0821 0.7047
vn 0.9053 -0.1475 -0.3984
vn -0.9295 -0.1515 0.3362
vn 0.3162 0.0000 -0.9487
vn 0.4299 -0.1617 -0.8883
vn -0.4793 -0.1531 0.8642
vn 0.1895 0.0818 -0.9785
vn 0.7018 -0.1220 0.7018
vn 0.9434 -0.3316 0.0000
usemtl None
s off
f 14//1 37//1 12//1
f 46//2 20//2 19//2
f 13//3 31//3 38//3
f 33//4 34//4 8//4
f 47//5 21//5 20//5
f 16//6 38//6 42//6
f 9//7 32//7 8//7
f 17//8 54//8 43//8
f 6//9 40//9 14//9
f 28//10 4//10 41//10
f 3//11 51//11 27//11
f 49//12 51//12 23//12
f 24//13 52//13 53//13
f 41//14 16//14 42//14
f 45//15 19//15 18//15
f 18//16 2//16 5//16
f 24//17 53//17 54//17
f 11//18 37//18 35//18
f 1//16 22//16 2//16
f 2//19 26//19 50//19
f 48//20 22//20 21//20
f 36//21 10//21 34//21
f 46//22 47//22 20//22
f 23//23 50//23 49//23
f 12//24 37//24 11//24
f 39//25 10//25 36//25
f 10//26 8//26 34//26
f 45//27 30//27 25//27
f 28//28 44//28 4//28
f 51//29 3//29 23//29
f 22//30 25//30 2//30
f 21//31 47//31 48//31
f 13//32 38//32 16//32
f 33//33 8//33 32//33
f 3//34 27//34 52//34
f 17//35 24//35 54//35
f 15//36 17//36 43//36
f 5//37 15//37 40//37
f 9//38 35//38 32//38
f 46//39 19//39 45//39
f 15//40 30//40 40//40
f 35//41 7//41 11//41
f 15//42 43//42 29//42
f 45//43 18//43 44//43
f 44//44 18//44 4//44
f 14//45 40//45 37//45
f 13//46 39//46 31//46
f 6//47 5//47 40//47
f 24//48 3//48 52//48
f 41//49 4//49 16//49
f 18//16 19//16 20//16
f 20//16 21//16 18//16
f 21//16 22//16 1//16
f 1//16 2//16 21//16
f 2//16 23//16 3//16
f 4//16 18//16 16//16
f 13//16 18//16 5//16
f 13//16 16//16 18//16
f 8//16 10//16 7//16
f 10//16 13//16 7//16
f 7//16 9//16 8//16
f 12//16 11//16 7//16
f 6//16 14//16 12//16
f 15//16 5//16 17//16
f 5//16 6//16 12//16
f 24//16 5//16 2//16
f 24//16 17//16 5//16
f 3//16 24//16 2//16
f 21//16 2//16 18//16
f 12//16 7//16 5//16
f 13//16 5//16 7//16
f 2//50 25//50 26//50
f 23//51 2//51 50//51
f 39//52 13//52 10//52
f 47//27 46//27 48//27
f 46//27 45//27 25//27
f 48//27 46//27 25//27
f 45//27 44//27 41//27
f 44//27 28//27 41//27
f 41//27 42//27 45//27
f 42//27 38//27 30//27
f 38//27 31//27 36//27
f 31//27 39//27 36//27
f 36//27 34//27 38//27
f 34//27 33//27 32//27
f 32//27 35//27 37//27
f 37//27 40//27 30//27
f 30//27 29//27 43//27
f 37//27 30//27 32//27
f 34//27 32//27 38//27
f 26//27 25//27 49//27
f 52//27 30//27 53//27
f 49//27 50//27 26//27
f 27//27 51//27 52//27
f 51//27 49//27 25//27
f 43//27 54//27 30//27
f 54//27 53//27 30//27
f 38//27 32//27 30//27
f 45//27 42//27 30//27
f 30//27 52//27 25//27
f 51//27 25//27 52//27
f 22//53 48//53 25//53
f 15//54 29//54 30//54
f 35//55 9//55 7//55
