# Blender v3.0.0 OBJ File: 'Windmill.blend'
# www.blender.org
o Cloud_Sphere
v 4.306565 3.012581 -1.718111
v 4.274035 2.994163 -1.994404
v 4.756012 2.557906 -1.201265
v 4.729804 2.889560 -1.171974
v 4.701374 2.116163 -1.636721
v 4.622457 2.403115 -1.485435
v 4.460110 2.867555 -1.534306
v 4.672850 2.115060 -1.886581
v 4.457307 2.381447 -2.189446
v 4.298169 2.752496 -2.080133
v 4.301576 3.368648 -1.709023
v 4.309227 3.679043 -1.719258
v 4.184011 3.369246 -1.977799
v 4.174375 3.888264 -1.987486
v 4.184749 4.379555 -2.223922
v 4.718817 3.368648 -1.165741
v 4.720758 3.847736 -1.171906
v 4.752815 4.148182 -1.208654
v 4.479273 3.368648 -1.469479
v 4.461324 3.842202 -1.534864
v 4.658775 4.235921 -1.501641
v 4.331737 4.023927 -1.786008
v 4.482704 4.441676 -2.053845
v 4.268200 3.066744 -2.303891
v 4.465157 2.521190 -2.678435
v 4.432435 2.888671 -2.633338
v 4.700512 3.067559 -2.805494
v 4.169331 3.437835 -2.504382
v 4.023520 4.024136 -2.624311
v 4.122419 4.515729 -2.718937
v 4.200215 3.712010 -2.910450
v 4.140058 4.126571 -3.051686
v 4.149561 4.484442 -3.089474
v 4.376078 3.272918 -2.647223
v 4.450576 4.716270 -2.745325
v 4.508589 3.509330 -2.959502
v 4.447217 4.160502 -3.226803
v 4.423897 4.590889 -3.176858
v 5.205766 2.580109 -0.658533
v 5.160121 2.889560 -0.578582
v 5.043360 2.458578 -1.032563
v 4.920577 2.889560 -0.932430
v 5.039293 2.065588 -1.545750
v 5.039293 2.223605 -1.306206
v 5.070690 2.086010 -2.017596
v 4.861443 2.206769 -2.314223
v 5.652364 2.615579 -0.218471
v 5.555225 2.894462 -0.156345
v 5.502954 2.546751 -0.515288
v 5.326452 2.889560 -0.339038
v 5.518381 2.368738 -1.019053
v 5.433531 2.085238 -1.582796
v 5.563289 2.223819 -1.453116
v 5.394880 2.106648 -1.977229
v 5.612751 2.366240 -1.978440
v 5.647998 2.889560 -2.097052
v 5.997469 2.594346 -0.203951
v 5.942422 2.914614 -0.087412
v 5.997469 2.499200 -0.539965
v 6.014656 2.525707 -1.030455
v 6.195167 2.889560 -1.206997
v 5.889407 2.474598 -1.498141
v 6.052974 2.889560 -1.498141
v 5.824741 2.496448 -1.819551
v 5.855277 2.889560 -1.857507
v 6.295183 2.610226 -0.253744
v 6.336543 2.895684 -0.177547
v 6.320785 2.575850 -0.539965
v 6.457366 2.889560 -0.539965
v 6.290539 2.590919 -0.878361
v 6.344381 2.889560 -0.967453
v 5.269086 3.515619 -0.279057
v 5.269086 3.695156 -0.279057
v 5.168287 3.361013 -0.499717
v 5.170056 3.852006 -0.501074
v 5.196568 4.218690 -0.634843
v 4.908419 3.368648 -0.926197
v 4.910630 3.847736 -0.932362
v 5.053789 4.382092 -1.071729
v 5.209802 4.736901 -1.317428
v 4.921387 4.590640 -1.591969
v 5.135589 4.812740 -1.669852
v 4.997290 4.599494 -2.058604
v 5.146774 4.757593 -1.916944
v 5.615088 3.595623 -0.006508
v 5.643579 3.864773 0.180583
v 5.684168 4.209565 0.254153
v 5.454752 3.394508 -0.156746
v 5.413622 3.852007 -0.095973
v 5.546892 4.352286 -0.028635
v 5.631850 4.671587 -0.166837
v 5.288189 3.196227 -0.313190
v 5.286644 4.014548 -0.315451
v 5.353665 4.357761 -0.501074
v 5.606061 4.657824 -0.539965
v 5.353737 4.570778 -0.899202
v 5.602316 4.586188 -1.202768
v 5.475263 4.652623 -1.059468
v 5.527269 4.636819 -1.636063
v 5.271951 4.831323 -1.684481
v 5.650353 3.368648 -2.080573
v 5.662939 3.847819 -2.102491
v 5.496441 4.402429 -2.027426
v 5.278604 4.765301 -1.921335
v 5.675435 3.602747 -0.033905
v 5.921341 3.889992 0.143126
v 5.997303 4.352286 0.246174
v 6.156888 4.589638 0.199897
v 5.812157 3.453301 -0.158210
v 6.028910 3.759093 -0.031172
v 5.837497 4.528957 0.152555
v 5.997303 4.684757 -0.028635
v 5.997469 4.748312 -0.539965
v 6.232421 3.167581 -1.250641
v 5.997395 4.398188 -1.097988
v 5.997469 4.617778 -0.858214
v 6.111343 3.343826 -1.464469
v 6.092662 3.847736 -1.518387
v 5.994206 4.200078 -1.453972
v 5.843826 3.368648 -1.841029
v 5.853118 3.847736 -1.862868
v 5.831608 4.183347 -1.849896
v 6.263913 4.037881 0.183257
v 6.281691 4.326824 0.206436
v 6.263281 4.589638 0.199897
v 6.335330 3.396881 -0.209672
v 6.407701 3.870200 -0.061322
v 6.459755 4.326824 -0.060877
v 6.321064 4.635440 -0.060877
v 6.554384 3.368648 -0.539965
v 6.589746 3.847736 -0.539965
v 6.527336 4.326824 -0.539965
v 6.355392 4.656857 -0.539965
v 6.372462 3.343826 -1.062189
v 6.398665 3.847736 -1.019053
v 6.327888 4.281614 -1.013945
v 6.309052 4.618194 -0.850843
v 6.253399 3.486973 -1.282325
v 6.250638 3.847736 -1.278843
v 6.238794 4.091778 -1.261863
v 5.264742 2.170369 -2.238664
v 4.978162 2.382126 -2.501199
v 4.982839 2.881327 -2.666072
v 4.864752 3.061762 -2.799115
v 5.264884 2.170370 -2.238630
v 5.321434 2.409729 -2.308618
v 5.408454 2.889560 -2.349971
v 5.169460 3.420136 -2.663985
v 5.191029 3.894424 -2.780622
v 4.955009 4.564601 -2.678510
v 4.909410 3.476901 -2.931276
v 4.977571 4.129203 -3.038423
v 4.938237 4.449785 -3.030121
v 5.409031 3.373571 -2.380095
v 5.366961 3.969962 -2.553555
v 5.314824 4.285072 -2.576898
v 5.215026 4.260697 -2.870833
v 5.214710 4.273034 -2.871665
vn -0.7934 -0.1155 0.5976
vn -0.8647 -0.4532 0.2168
vn -0.9023 -0.2810 0.3269
vn -0.9819 -0.1424 0.1251
vn -0.9160 -0.0231 0.4006
vn -0.8960 -0.0083 0.4440
vn -0.7849 -0.0261 0.6190
vn -0.7855 -0.0498 0.6169
vn -0.8129 0.0493 0.5803
vn -0.7931 0.0537 0.6067
vn -0.8376 0.3876 0.3849
vn -0.8260 0.1586 0.5410
vn -0.7240 0.5382 0.4314
vn -0.4897 0.5891 0.6428
vn -0.9671 -0.0556 -0.2484
vn -0.9952 -0.0979 -0.0042
vn -0.9653 -0.2610 -0.0071
vn -0.9619 -0.2014 0.1849
vn -0.9564 0.2276 0.1830
vn -0.9209 -0.2387 -0.3083
vn -0.9970 0.0186 -0.0746
vn -0.7237 -0.4672 -0.5080
vn -0.3813 0.8530 0.3564
vn -0.6116 -0.4839 -0.6259
vn -0.7254 -0.5436 -0.4222
vn -0.4355 -0.3463 -0.8309
vn -0.4871 -0.0789 -0.8698
vn -0.4149 0.8803 -0.2301
vn -0.8001 -0.2579 0.5416
vn -0.5605 -0.3356 0.7571
vn -0.2635 -0.8052 0.5312
vn -0.5197 -0.6237 0.5839
vn -0.1537 -0.9879 0.0219
vn -0.4630 -0.8025 -0.3763
vn -0.5765 -0.3638 0.7317
vn -0.4068 -0.5746 0.7102
vn -0.1826 -0.9090 0.3746
vn 0.1771 -0.7558 0.6305
vn -0.1598 -0.7478 0.6445
vn 0.0683 -0.9969 -0.0386
vn 0.7611 -0.6393 -0.1093
vn -0.0609 -0.3505 0.9346
vn -0.0793 -0.9616 0.2629
vn -0.0740 -0.9410 0.3302
vn 0.6064 -0.7333 0.3076
vn 0.8468 -0.5034 -0.1718
vn 0.5994 -0.7850 -0.1564
vn 0.9101 -0.3587 -0.2075
vn 0.6651 -0.2074 -0.7174
vn 0.1729 -0.2773 0.9451
vn 0.0964 -0.9577 0.2712
vn 0.9092 -0.3959 0.1289
vn 0.2524 -0.9666 -0.0434
vn 0.9123 -0.3972 -0.0992
vn 0.4966 -0.5658 -0.6582
vn -0.9121 0.0044 0.4100
vn -0.8523 -0.0719 0.5181
vn -0.7819 -0.0279 0.6227
vn -0.8569 0.0106 0.5153
vn -0.7841 0.0116 0.6206
vn -0.8522 0.3335 0.4032
vn -0.5989 0.3485 0.7210
vn -0.6684 0.6159 0.4170
vn -0.6368 0.7152 0.2880
vn -0.2933 0.9556 -0.0296
vn -0.7388 0.6499 -0.1785
vn -0.7130 -0.3478 0.6089
vn -0.7064 -0.1552 0.6906
vn -0.8973 0.0115 0.4413
vn -0.6001 -0.1199 0.7909
vn -0.8122 -0.1489 0.5640
vn -0.8756 -0.1028 0.4720
vn -0.8234 0.1087 0.5569
vn -0.8616 0.3611 0.3566
vn -0.7740 0.4114 0.4813
vn -0.7631 0.6456 0.0289
vn -0.7635 0.5695 0.3046
vn -0.4556 0.8838 0.1059
vn -0.0941 0.9137 0.3953
vn 0.6074 0.7943 -0.0124
vn 0.0559 0.9646 0.2576
vn 0.7346 0.5551 -0.3903
vn -0.0646 0.6991 -0.7121
vn -0.0652 0.9608 -0.2696
vn 0.1600 -0.6135 0.7733
vn 0.1322 -0.2363 0.9626
vn -0.1789 0.0855 0.9801
vn 0.3541 -0.7243 0.5916
vn 0.2150 -0.5007 0.8385
vn -0.1410 0.3609 0.9219
vn -0.2328 0.8294 0.5078
vn -0.2243 0.8279 0.5141
vn -0.0821 0.9890 0.1229
vn 0.1725 0.9431 -0.2843
vn -0.2092 0.9047 -0.3711
vn 0.8829 -0.1860 -0.4312
vn 0.4784 0.7655 -0.4303
vn 0.8756 0.0375 -0.4817
vn 0.7561 0.0188 -0.6542
vn 0.8138 -0.0319 -0.5803
vn 0.7823 -0.0490 -0.6209
vn 0.8187 0.0745 -0.5693
vn 0.5855 0.2788 -0.7613
vn 0.7108 0.6272 -0.3184
vn 0.1302 -0.0872 0.9876
vn 0.0000 0.0249 0.9997
vn 0.2254 0.0629 0.9722
vn 0.1676 -0.3181 0.9331
vn 0.2265 -0.7066 0.6704
vn 0.8284 -0.0950 0.5521
vn 0.8301 0.0719 0.5530
vn 0.0000 0.9849 0.1730
vn 0.9485 0.0225 0.3158
vn 0.8294 -0.0612 0.5553
vn 0.9297 0.1211 0.3479
vn 0.8800 0.4585 0.1241
vn 0.2471 0.9671 0.0609
vn 0.9488 -0.1921 -0.2508
vn 0.8328 -0.1930 -0.5188
vn 0.9444 -0.0210 -0.3280
vn 0.9221 0.1201 -0.3678
vn 0.8860 0.2414 -0.3959
vn 0.0150 0.7374 -0.6753
vn 0.2446 0.9571 -0.1555
vn 0.8236 -0.1093 -0.5565
vn 0.8783 -0.0047 -0.4781
vn 0.8010 -0.0343 -0.5977
vn 0.8663 0.0764 -0.4936
vn 0.6684 0.3104 -0.6760
vn 0.3949 0.6554 -0.6438
vn 0.0571 -0.7457 -0.6638
vn -0.4485 -0.8575 -0.2522
vn -0.0574 0.1166 -0.9915
vn -0.0538 -0.6494 -0.7585
vn 0.0769 -0.9526 -0.2944
vn 0.6736 -0.5676 -0.4734
vn 0.4797 -0.3489 -0.8051
vn 0.7217 -0.1989 -0.6630
vn 0.4869 -0.2780 -0.8280
vn -0.2933 0.9554 -0.0338
vn 0.5833 -0.1990 -0.7875
vn 0.0415 -0.3128 -0.9489
vn 0.6796 -0.2042 -0.7046
vn 0.2972 -0.3385 -0.8928
vn 0.3040 0.1261 -0.9443
vn 0.3111 0.8989 -0.3084
vn 0.7259 0.0201 -0.6875
vn 0.5867 -0.2002 -0.7847
vn 0.7774 -0.0491 -0.6271
vn 0.8056 -0.1758 -0.5657
vn 0.8309 0.3118 -0.4608
vn 0.3659 0.8780 -0.3085
vn 0.6415 -0.2228 -0.7341
vn 0.9355 0.1305 -0.3284
vn 0.5369 0.0876 -0.8391
vn 0.6370 0.7305 -0.2462
vn -0.8246 -0.2340 0.5150
vn -0.9423 -0.3166 0.1090
vn -0.8720 -0.4382 0.2180
vn -0.8280 -0.4461 0.3397
vn -0.9629 -0.2368 0.1292
vn -0.9156 0.0358 0.4006
vn -0.7999 -0.0468 0.5983
vn -0.8029 -0.0265 0.5956
vn -0.7851 0.0112 0.6192
vn -0.8025 0.0394 0.5953
vn -0.8047 0.1559 0.5728
vn -0.8271 0.1584 0.5393
vn -0.7308 0.3154 0.6053
vn -0.8376 0.2511 0.4851
vn -0.9247 -0.3618 -0.1182
vn -0.9091 -0.2956 -0.2934
vn -0.9721 -0.2317 -0.0360
vn -0.9995 -0.0181 0.0255
vn -0.9556 0.1439 0.2571
vn -0.9229 -0.2830 -0.2612
vn -0.9624 0.1500 -0.2265
vn -0.9147 -0.1478 -0.3761
vn -0.4823 0.8272 0.2883
vn -0.4880 -0.1029 -0.8668
vn -0.4872 -0.5842 -0.6491
vn -0.3844 -0.3813 -0.8407
vn -0.3341 0.0908 -0.9382
vn -0.5247 0.8442 -0.1097
vn -0.8168 -0.3408 0.4654
vn -0.7770 -0.1160 0.6188
vn -0.5153 -0.5063 0.6915
vn -0.5428 -0.6332 0.5518
vn -0.0888 -0.9948 -0.0490
vn -0.1594 -0.9485 -0.2737
vn -0.6635 -0.5828 0.4691
vn -0.7933 -0.2593 0.5508
vn -0.2546 -0.9142 0.3153
vn 0.0929 -0.8311 0.5483
vn 0.0912 -0.9417 0.3238
vn 0.0442 -0.9973 -0.0585
vn 0.7706 -0.6297 -0.0982
vn -0.1555 -0.2661 0.9513
vn -0.0705 -0.9598 0.2718
vn 0.3005 -0.9529 -0.0410
vn 0.3020 -0.9530 0.0233
vn 0.8470 -0.3339 -0.4137
vn 0.5855 -0.7923 -0.1717
vn 0.8705 -0.1138 -0.4789
vn 0.7506 -0.1210 -0.6495
vn 0.1984 -0.3049 0.9315
vn 0.2285 -0.9640 0.1362
vn 0.9249 -0.2173 0.3120
vn 0.2302 -0.9710 -0.0638
vn 0.9378 -0.2430 -0.2479
vn 0.8106 -0.2968 -0.5049
vn -0.9096 0.0000 0.4155
vn -0.8278 -0.0283 0.5604
vn -0.7838 -0.0260 0.6204
vn -0.8539 0.0045 0.5204
vn -0.7836 0.0112 0.6211
vn -0.8325 0.2420 0.4984
vn -0.7739 0.1576 0.6134
vn -0.6840 0.6088 0.4019
vn -0.6929 0.5908 0.4132
vn -0.6658 0.6044 0.4375
vn -0.6786 0.7281 -0.0966
vn -0.5620 -0.1584 0.8118
vn -0.5501 0.0000 0.8351
vn -0.7661 0.1191 0.6315
vn -0.6158 -0.1422 0.7750
vn -0.8655 -0.0680 0.4963
vn -0.5997 -0.1204 0.7911
vn -0.8800 0.1013 0.4641
vn -0.8092 0.1387 0.5709
vn -0.8997 0.2055 0.3851
vn -0.8544 0.3805 0.3539
vn -0.6460 0.6213 0.4435
vn -0.6983 0.6312 0.3376
vn -0.6473 0.6054 0.4632
vn 0.5246 0.8483 0.0719
vn -0.1070 0.9671 0.2307
vn 0.6175 0.7620 -0.1951
vn 0.2093 0.3880 -0.8976
vn -0.1550 0.9627 -0.2219
vn 0.3979 -0.5517 0.7330
vn 0.1501 -0.2232 0.9631
vn 0.0038 0.0016 1.0000
vn 0.0989 -0.5813 0.8077
vn 0.2911 -0.6701 0.6829
vn -0.6561 0.4959 0.5688
vn -0.1973 0.3137 0.9288
vn -0.6524 0.4405 0.6167
vn -0.2252 0.9741 -0.0204
vn 0.4683 0.6515 -0.5968
vn 0.0779 0.9965 -0.0296
vn 0.8428 -0.0687 -0.5339
vn 0.6899 0.7230 -0.0350
vn 0.8118 -0.0613 -0.5807
vn 0.7773 0.0402 -0.6278
vn 0.8203 -0.0419 -0.5704
vn 0.7772 -0.0437 -0.6277
vn 0.8741 0.3123 -0.3722
vn 0.7811 0.0740 -0.6199
vn 0.6424 0.6341 -0.4304
vn -0.0220 -0.2141 0.9766
vn 0.1460 0.0938 0.9848
vn 0.1134 0.1564 0.9812
vn 0.0453 -0.4105 0.9107
vn 0.2618 -0.7173 0.6457
vn 0.8285 -0.0952 0.5519
vn 0.8797 0.3953 0.2644
vn 0.1714 0.9463 0.2741
vn 0.8154 -0.1651 0.5549
vn 0.9013 -0.2489 0.3545
vn 0.9839 -0.1123 0.1388
vn 0.9090 0.4085 0.0834
vn 0.1613 0.9794 0.1218
vn 0.9388 -0.1250 -0.3211
vn 0.8569 -0.1555 -0.4914
vn 0.9267 -0.0684 -0.3696
vn 0.9057 0.1524 -0.3956
vn 0.8713 0.4540 -0.1863
vn 0.3606 0.4230 -0.8313
vn 0.0077 0.9252 -0.3795
vn 0.8435 -0.1076 -0.5262
vn 0.8688 0.0114 -0.4950
vn 0.8347 0.0117 -0.5505
vn 0.8883 0.1500 -0.4341
vn 0.8322 0.0786 -0.5488
vn 0.6109 0.6894 -0.3892
vn -0.0150 -0.9297 -0.3679
vn 0.0322 -0.7390 -0.6730
vn 0.2354 -0.3068 -0.9222
vn 0.0106 -0.5889 -0.8081
vn 0.0957 -0.9551 -0.2804
vn 0.6794 -0.3492 -0.6454
vn 0.2256 -0.3229 -0.9192
vn 0.7132 -0.1875 -0.6754
vn 0.5892 -0.1748 -0.7888
vn 0.2268 0.9087 0.3503
vn 0.6536 -0.2925 -0.6980
vn 0.0262 -0.3058 -0.9517
vn 0.6654 -0.1882 -0.7224
vn 0.0558 -0.1675 -0.9843
vn 0.3374 0.0657 -0.9391
vn 0.3279 0.9016 -0.2822
vn 0.7778 -0.0400 -0.6273
vn 0.7602 -0.0413 -0.6483
vn 0.8178 -0.1068 -0.5655
vn 0.7458 -0.1370 -0.6519
vn 0.9329 0.1295 -0.3360
vn 0.6263 0.7748 -0.0863
vn 0.8057 -0.1909 -0.5607
vn 0.9468 0.0026 -0.3217
vn 0.5906 -0.0393 -0.8060
vn 0.6236 0.7339 -0.2694
s off
f 7//1 3//1 4//1
f 8//2 6//2 9//2
f 10//3 6//3 7//3
f 10//4 1//4 2//4
f 13//5 1//5 11//5
f 13//6 12//6 14//6
f 19//7 4//7 16//7
f 19//8 1//8 7//8
f 19//9 17//9 20//9
f 12//10 19//10 20//10
f 20//11 18//11 21//11
f 22//12 12//12 20//12
f 22//13 21//13 23//13
f 15//14 22//14 23//14
f 25//15 10//15 26//15
f 24//16 10//16 2//16
f 24//17 13//17 28//17
f 28//18 14//18 29//18
f 29//19 15//19 30//19
f 31//20 29//20 32//20
f 32//21 30//21 33//21
f 34//22 24//22 28//22
f 35//23 15//23 23//23
f 27//24 34//24 36//24
f 31//25 34//25 28//25
f 37//26 31//26 32//26
f 33//27 37//27 32//27
f 33//28 35//28 38//28
f 42//29 39//29 40//29
f 42//30 3//30 41//30
f 44//31 5//31 43//31
f 44//32 3//32 6//32
f 8//33 43//33 5//33
f 46//34 8//34 9//34
f 50//35 47//35 48//35
f 50//36 39//36 49//36
f 51//37 39//37 41//37
f 44//38 52//38 53//38
f 44//39 51//39 41//39
f 54//40 43//40 45//40
f 55//41 52//41 54//41
f 58//42 47//42 57//42
f 59//43 47//43 49//43
f 51//44 59//44 49//44
f 62//45 51//45 53//45
f 62//46 61//46 60//46
f 64//47 53//47 55//47
f 64//48 63//48 62//48
f 56//49 64//49 55//49
f 67//50 57//50 66//50
f 59//51 66//51 57//51
f 69//52 66//52 68//52
f 70//53 59//53 60//53
f 70//54 69//54 68//54
f 61//55 70//55 60//55
f 74//56 73//56 75//56
f 77//57 40//57 74//57
f 77//58 4//58 42//58
f 77//59 75//59 78//59
f 78//60 16//60 77//60
f 78//61 76//61 79//61
f 18//62 78//62 79//62
f 81//63 18//63 79//63
f 81//64 80//64 82//64
f 23//65 81//65 83//65
f 84//66 81//66 82//66
f 89//67 85//67 86//67
f 73//68 88//68 89//68
f 90//69 86//69 87//69
f 92//70 48//70 88//70
f 92//71 40//71 50//71
f 92//72 72//72 74//72
f 93//73 73//73 89//73
f 93//74 90//74 94//74
f 76//75 93//75 94//75
f 94//76 91//76 95//76
f 96//77 76//77 94//77
f 96//78 95//78 98//78
f 80//79 96//79 98//79
f 100//80 97//80 99//80
f 100//81 80//81 98//81
f 104//82 99//82 103//82
f 104//83 83//83 84//83
f 84//84 100//84 104//84
f 86//85 105//85 106//85
f 87//86 106//86 107//86
f 109//87 48//87 58//87
f 88//88 105//88 85//88
f 110//89 105//89 109//89
f 111//90 87//90 107//90
f 111//91 108//91 112//91
f 91//92 111//92 112//92
f 113//93 91//93 112//93
f 116//94 97//94 98//94
f 116//95 95//95 113//95
f 63//96 114//96 61//96
f 119//97 97//97 115//97
f 120//98 63//98 65//98
f 101//99 65//99 56//99
f 120//100 118//100 117//100
f 121//101 101//101 102//101
f 122//102 118//102 121//102
f 122//103 102//103 103//103
f 122//104 99//104 119//104
f 107//105 123//105 124//105
f 108//106 124//106 125//106
f 126//107 58//107 67//107
f 110//108 126//108 127//108
f 110//109 123//109 106//109
f 128//110 123//110 127//110
f 128//111 125//111 124//111
f 129//112 108//112 125//112
f 69//113 126//113 67//113
f 131//114 126//114 130//114
f 132//115 127//115 131//115
f 133//116 128//116 132//116
f 113//117 129//117 133//117
f 71//118 130//118 69//118
f 114//119 71//119 61//119
f 135//120 130//120 134//120
f 135//121 132//121 131//121
f 137//122 132//122 136//122
f 137//123 115//123 116//123
f 137//124 113//124 133//124
f 138//125 114//125 117//125
f 138//126 135//126 134//126
f 118//127 138//127 117//127
f 140//128 135//128 139//128
f 140//129 118//129 119//129
f 140//130 115//130 136//130
f 141//131 46//131 142//131
f 25//132 46//132 9//132
f 143//133 25//133 26//133
f 27//134 143//134 26//134
f 145//135 45//135 141//135
f 145//136 55//136 54//136
f 146//137 141//137 142//137
f 146//138 56//138 55//138
f 143//139 146//139 142//139
f 150//140 23//140 83//140
f 144//141 148//141 143//141
f 151//142 27//142 36//142
f 151//143 149//143 148//143
f 152//144 36//144 37//144
f 153//145 37//145 38//145
f 153//146 35//146 150//146
f 147//147 101//147 56//147
f 148//148 147//148 143//148
f 154//149 102//149 101//149
f 155//150 148//150 149//150
f 155//151 103//151 102//151
f 156//152 83//152 103//152
f 157//153 149//153 152//153
f 157//154 156//154 155//154
f 158//155 152//155 153//155
f 158//156 150//156 156//156
f 7//157 6//157 3//157
f 8//158 5//158 6//158
f 10//159 9//159 6//159
f 10//160 7//160 1//160
f 13//161 2//161 1//161
f 13//162 11//162 12//162
f 19//163 7//163 4//163
f 19//164 11//164 1//164
f 19//165 16//165 17//165
f 12//166 11//166 19//166
f 20//167 17//167 18//167
f 22//168 14//168 12//168
f 22//169 20//169 21//169
f 15//170 14//170 22//170
f 25//171 9//171 10//171
f 24//172 26//172 10//172
f 24//173 2//173 13//173
f 28//174 13//174 14//174
f 29//175 14//175 15//175
f 31//176 28//176 29//176
f 32//177 29//177 30//177
f 34//178 26//178 24//178
f 35//179 30//179 15//179
f 27//180 26//180 34//180
f 31//181 36//181 34//181
f 37//182 36//182 31//182
f 33//183 38//183 37//183
f 33//184 30//184 35//184
f 42//185 41//185 39//185
f 42//186 4//186 3//186
f 44//187 6//187 5//187
f 44//188 41//188 3//188
f 8//189 45//189 43//189
f 46//190 45//190 8//190
f 50//191 49//191 47//191
f 50//192 40//192 39//192
f 51//193 49//193 39//193
f 44//194 43//194 52//194
f 44//195 53//195 51//195
f 54//196 52//196 43//196
f 55//197 53//197 52//197
f 58//198 48//198 47//198
f 59//199 57//199 47//199
f 51//200 60//200 59//200
f 62//201 60//201 51//201
f 62//202 63//202 61//202
f 64//203 62//203 53//203
f 64//204 65//204 63//204
f 56//205 65//205 64//205
f 67//206 58//206 57//206
f 59//207 68//207 66//207
f 69//208 67//208 66//208
f 70//209 68//209 59//209
f 70//210 71//210 69//210
f 61//211 71//211 70//211
f 74//212 72//212 73//212
f 77//213 42//213 40//213
f 77//214 16//214 4//214
f 77//215 74//215 75//215
f 78//216 17//216 16//216
f 78//217 75//217 76//217
f 18//218 17//218 78//218
f 81//219 21//219 18//219
f 81//220 79//220 80//220
f 23//221 21//221 81//221
f 84//222 83//222 81//222
f 89//223 88//223 85//223
f 73//224 72//224 88//224
f 90//225 89//225 86//225
f 92//226 50//226 48//226
f 92//227 74//227 40//227
f 92//228 88//228 72//228
f 93//229 75//229 73//229
f 93//230 89//230 90//230
f 76//231 75//231 93//231
f 94//232 90//232 91//232
f 96//233 79//233 76//233
f 96//234 94//234 95//234
f 80//235 79//235 96//235
f 100//236 98//236 97//236
f 100//237 82//237 80//237
f 104//238 100//238 99//238
f 104//239 103//239 83//239
f 84//240 82//240 100//240
f 86//241 85//241 105//241
f 87//242 86//242 106//242
f 109//243 88//243 48//243
f 88//244 109//244 105//244
f 110//245 106//245 105//245
f 111//246 90//246 87//246
f 111//247 107//247 108//247
f 91//248 90//248 111//248
f 113//249 95//249 91//249
f 116//250 115//250 97//250
f 116//251 98//251 95//251
f 63//252 117//252 114//252
f 119//253 99//253 97//253
f 120//254 117//254 63//254
f 101//255 120//255 65//255
f 120//256 121//256 118//256
f 121//257 120//257 101//257
f 122//258 119//258 118//258
f 122//259 121//259 102//259
f 122//260 103//260 99//260
f 107//261 106//261 123//261
f 108//262 107//262 124//262
f 126//263 109//263 58//263
f 110//264 109//264 126//264
f 110//265 127//265 123//265
f 128//266 124//266 123//266
f 128//267 129//267 125//267
f 129//268 112//268 108//268
f 69//269 130//269 126//269
f 131//270 127//270 126//270
f 132//271 128//271 127//271
f 133//272 129//272 128//272
f 113//273 112//273 129//273
f 71//274 134//274 130//274
f 114//275 134//275 71//275
f 135//276 131//276 130//276
f 135//277 136//277 132//277
f 137//278 133//278 132//278
f 137//279 136//279 115//279
f 137//280 116//280 113//280
f 138//281 134//281 114//281
f 138//282 139//282 135//282
f 118//283 139//283 138//283
f 140//284 136//284 135//284
f 140//285 139//285 118//285
f 140//286 119//286 115//286
f 141//287 45//287 46//287
f 25//288 142//288 46//288
f 143//289 142//289 25//289
f 27//290 144//290 143//290
f 145//291 54//291 45//291
f 145//292 146//292 55//292
f 146//293 145//293 141//293
f 146//294 147//294 56//294
f 143//295 147//295 146//295
f 150//296 35//296 23//296
f 144//297 151//297 148//297
f 151//298 144//298 27//298
f 151//299 152//299 149//299
f 152//300 151//300 36//300
f 153//301 152//301 37//301
f 153//302 38//302 35//302
f 147//303 154//303 101//303
f 148//304 154//304 147//304
f 154//305 155//305 102//305
f 155//306 154//306 148//306
f 155//307 156//307 103//307
f 156//308 150//308 83//308
f 157//309 155//309 149//309
f 157//310 158//310 156//310
f 158//311 157//311 152//311
f 158//312 153//312 150//312
