# Blender v3.2.0 OBJ File: 'Windmill.blend'
# www.blender.org
o Cube
v 0.088651 2.044045 0.050806
v 0.088651 2.053999 0.050806
v 0.067743 2.044045 -0.509022
v 0.067743 2.053999 -0.509022
v 0.103168 2.044045 0.050806
v 0.103168 2.053999 0.050806
v 0.103168 2.044045 -0.509022
v 0.103168 2.053999 -0.509022
v 0.022753 2.044045 0.122212
v 0.022753 2.053999 0.122212
v 0.022753 2.053999 0.138039
v 0.022753 2.044045 0.138039
v 0.079112 2.044045 -0.422117
v 0.037560 2.053999 0.112639
v 0.037560 2.044045 0.112639
v 0.048129 2.044045 0.126344
v 0.048129 2.053999 0.126344
v 0.079112 2.053999 -0.422117
v 0.103168 2.044045 -0.036099
v 0.103168 2.044045 -0.277558
v 0.103168 2.044045 -0.422117
v 0.103168 2.053999 -0.422117
v 0.103168 2.053999 -0.277558
v 0.103168 2.053999 -0.036099
v 0.020806 2.044045 -0.277211
v 0.020806 2.044045 -0.247959
v 0.020806 2.053999 -0.247959
v 0.020806 2.053999 -0.277211
v 0.041241 2.044045 -0.277508
v 0.057438 2.044045 -0.293755
v 0.073201 2.044045 -0.196616
v 0.041241 2.044045 -0.248256
v 0.041241 2.053999 -0.248256
v 0.073201 2.053999 -0.196616
v 0.057438 2.053999 -0.293755
v 0.041241 2.053999 -0.277508
v 0.022753 2.060440 0.138039
v 0.022753 2.060440 0.122212
v 0.038872 2.060440 0.130610
v 0.032159 2.060440 0.116131
v 0.035454 2.053999 -0.277256
v 0.035454 2.044045 -0.277256
v 0.035454 2.044045 -0.248005
v 0.035454 2.053999 -0.248005
v 0.017270 2.056402 -0.240888
v 0.017270 2.056402 -0.284261
v 0.017270 2.041643 -0.240888
v 0.017270 2.041643 -0.284261
v 0.025778 2.041643 -0.284328
v 0.025778 2.041643 -0.240955
v 0.025778 2.056402 -0.240955
v 0.025778 2.056402 -0.284328
v 0.103168 2.044045 -0.337921
v 0.103168 2.044045 -0.386107
v 0.103168 2.053999 -0.386107
v 0.103168 2.053999 -0.337921
v 0.079112 2.044045 -0.390142
v 0.063857 2.044045 -0.345717
v 0.063857 2.053999 -0.345717
v 0.079112 2.053999 -0.390142
v 0.103168 2.053999 -0.317952
v 0.057438 2.044045 -0.329623
v 0.103168 2.044045 -0.317952
v 0.057438 2.053999 -0.329623
v 0.079112 2.086034 -0.422117
v 0.103168 2.086034 -0.422117
v 0.079112 2.086034 -0.390142
v 0.103168 2.086034 -0.386107
v 0.057438 2.086034 -0.329623
v 0.063857 2.086034 -0.345717
v 0.103168 2.086034 -0.337921
v 0.103168 2.086034 -0.317952
v -0.065540 2.005914 -0.631581
v -0.065540 2.136994 -0.631581
v -0.044686 2.026768 -0.762661
v -0.044686 2.116140 -0.762661
v 0.065540 2.005914 -0.631581
v 0.065540 2.136994 -0.631581
v 0.044686 2.026768 -0.762661
v 0.044686 2.116140 -0.762661
v -0.065540 2.049607 -0.631581
v -0.065540 2.093300 -0.631581
v -0.044686 2.086349 -0.762661
v -0.044686 2.056559 -0.762661
v 0.044686 2.086349 -0.762661
v 0.044686 2.056559 -0.762661
v 0.065540 2.093301 -0.631581
v 0.065540 2.049607 -0.631581
v 0.014895 2.026768 -0.762661
v -0.014895 2.026768 -0.762661
v -0.014895 2.116140 -0.762661
v 0.014895 2.116140 -0.762661
v -0.021847 2.005914 -0.631581
v 0.021847 2.005914 -0.631581
v 0.021847 2.136994 -0.631581
v -0.021847 2.136994 -0.631581
v 0.021847 2.049607 -0.631581
v -0.021847 2.049607 -0.631581
v 0.021847 2.093301 -0.631581
v -0.021847 2.093300 -0.631581
v -0.014895 2.056559 -0.762661
v 0.014895 2.056559 -0.762661
v -0.014895 2.086349 -0.762661
v 0.014895 2.086349 -0.762661
v -0.065540 2.093300 -0.355376
v -0.065540 2.136994 -0.355376
v -0.021847 2.136994 -0.355376
v -0.058542 2.116040 -0.355376
vn -0.9916 0.0000 0.1297
vn 0.0000 0.0000 -1.0000
vn 1.0000 0.0000 0.0000
vn 0.4185 0.0000 0.9082
vn 0.2410 0.9705 0.0000
vn -0.8944 -0.0000 -0.4472
vn -1.0000 0.0000 0.0000
vn -0.5429 0.0000 -0.8398
vn 0.0000 -1.0000 0.0000
vn 0.4186 0.0000 0.9082
vn 0.0000 1.0000 0.0000
vn -0.9981 0.0000 0.0623
vn 0.5888 0.0000 0.8083
vn -0.8503 0.0000 0.5263
vn -0.7082 0.0000 -0.7060
vn -0.7709 0.0000 -0.6370
vn 0.8082 0.0000 0.5889
vn 0.4308 0.8391 -0.3322
vn -0.0435 -0.0000 -0.9991
vn 0.0435 0.0000 0.9991
vn 0.0079 0.0000 1.0000
vn -0.0079 -0.0000 -1.0000
vn 0.5901 -0.0000 -0.8074
vn -0.0025 -0.9465 -0.3228
vn -0.8939 0.0000 0.4483
vn -0.5620 -0.8271 0.0000
vn 0.0010 -0.9472 0.3205
vn -0.9288 0.0000 -0.3705
vn -0.9458 0.0000 -0.3248
vn -0.1654 0.0000 0.9862
vn -0.2473 0.0000 0.9689
vn 0.1945 0.0000 -0.9809
vn -0.9876 0.0000 -0.1571
vn 0.9876 0.0000 -0.1571
vn 0.9913 0.0000 0.1317
vn 0.0000 -0.9876 -0.1571
vn 0.0000 0.9876 -0.1571
vn 0.0000 0.0000 1.0000
vn 0.9558 -0.2941 0.0000
vn 0.5889 0.0000 0.8082
vn 0.6451 0.7031 -0.2991
vn 0.5900 -0.0000 -0.8074
vn -0.0010 -0.9461 -0.3238
vn 0.0025 -0.9469 0.3214
vn 0.4959 -0.8684 0.0000
vn 0.0000 -0.9966 0.0821
s off
f 18//1 3//1 13//1
f 4//2 7//2 3//2
f 24//3 5//3 19//3
f 17//4 12//4 16//4
f 41//5 51//5 44//5
f 26//6 45//6 27//6
f 11//7 9//7 12//7
f 15//8 10//8 14//8
f 16//9 9//9 15//9
f 11//10 39//10 37//10
f 8//11 18//11 22//11
f 2//11 17//11 6//11
f 61//11 35//11 23//11
f 7//9 13//9 3//9
f 43//9 25//9 42//9
f 2//12 31//12 1//12
f 8//3 21//3 7//3
f 61//3 20//3 63//3
f 23//3 19//3 20//3
f 19//9 1//9 31//9
f 63//9 30//9 62//9
f 44//13 50//13 43//13
f 27//7 25//7 26//7
f 24//11 2//11 6//11
f 23//11 34//11 24//11
f 20//9 31//9 30//9
f 30//9 32//9 29//9
f 35//11 33//11 34//11
f 32//14 34//14 33//14
f 30//15 36//15 35//15
f 60//7 13//7 57//7
f 1//9 16//9 15//9
f 1//16 14//16 2//16
f 6//17 16//17 5//17
f 39//11 38//11 37//11
f 14//18 39//18 17//18
f 10//8 40//8 14//8
f 11//7 38//7 10//7
f 29//19 41//19 36//19
f 32//9 42//9 29//9
f 33//11 41//11 44//11
f 33//20 43//20 32//20
f 51//21 47//21 50//21
f 51//11 46//11 45//11
f 49//22 46//22 52//22
f 41//23 49//23 52//23
f 26//24 50//24 47//24
f 28//25 48//25 25//25
f 27//26 46//26 28//26
f 25//27 49//27 42//27
f 64//28 58//28 62//28
f 59//29 57//29 58//29
f 21//9 57//9 13//9
f 54//9 58//9 57//9
f 22//3 54//3 21//3
f 55//3 53//3 54//3
f 60//7 65//7 18//7
f 55//11 59//11 56//11
f 35//7 62//7 30//7
f 53//9 62//9 58//9
f 56//3 63//3 53//3
f 18//2 66//2 22//2
f 66//11 67//11 68//11
f 71//11 69//11 72//11
f 56//3 72//3 61//3
f 55//30 67//30 60//30
f 61//31 69//31 64//31
f 64//28 70//28 59//28
f 59//32 71//32 56//32
f 22//3 68//3 55//3
f 82//33 76//33 83//33
f 92//2 85//2 104//2
f 80//34 87//34 85//34
f 96//35 108//35 100//35
f 79//36 94//36 89//36
f 76//37 96//37 91//37
f 93//38 81//38 73//38
f 98//38 82//38 81//38
f 79//34 88//34 77//34
f 85//34 88//34 86//34
f 102//2 79//2 89//2
f 104//2 86//2 102//2
f 81//33 75//33 73//33
f 82//33 84//33 81//33
f 83//2 101//2 84//2
f 103//2 102//2 101//2
f 84//2 90//2 75//2
f 101//2 89//2 90//2
f 87//38 97//38 88//38
f 97//38 100//38 98//38
f 88//38 94//38 77//38
f 97//38 93//38 94//38
f 80//37 95//37 78//37
f 91//37 95//37 92//37
f 75//36 93//36 73//36
f 89//36 93//36 90//36
f 78//38 99//38 87//38
f 99//38 96//38 100//38
f 76//2 103//2 83//2
f 91//2 104//2 103//2
f 108//38 106//38 105//38
f 74//11 107//11 96//11
f 82//7 106//7 74//7
f 82//39 108//39 105//39
f 18//1 4//1 3//1
f 4//2 8//2 7//2
f 24//3 6//3 5//3
f 17//4 11//4 12//4
f 41//5 52//5 51//5
f 26//6 47//6 45//6
f 11//7 10//7 9//7
f 15//8 9//8 10//8
f 16//9 12//9 9//9
f 11//4 17//4 39//4
f 8//11 4//11 18//11
f 2//11 14//11 17//11
f 61//11 64//11 35//11
f 7//9 21//9 13//9
f 43//9 26//9 25//9
f 2//12 34//12 31//12
f 8//3 22//3 21//3
f 61//3 23//3 20//3
f 23//3 24//3 19//3
f 19//9 5//9 1//9
f 63//9 20//9 30//9
f 44//40 51//40 50//40
f 27//7 28//7 25//7
f 24//11 34//11 2//11
f 23//11 35//11 34//11
f 20//9 19//9 31//9
f 30//9 31//9 32//9
f 35//11 36//11 33//11
f 32//14 31//14 34//14
f 30//15 29//15 36//15
f 60//7 18//7 13//7
f 1//9 5//9 16//9
f 1//16 15//16 14//16
f 6//17 17//17 16//17
f 39//11 40//11 38//11
f 14//41 40//41 39//41
f 10//8 38//8 40//8
f 11//7 37//7 38//7
f 29//19 42//19 41//19
f 32//9 43//9 42//9
f 33//11 36//11 41//11
f 33//20 44//20 43//20
f 51//21 45//21 47//21
f 51//11 52//11 46//11
f 49//22 48//22 46//22
f 41//42 42//42 49//42
f 26//43 43//43 50//43
f 28//25 46//25 48//25
f 27//26 45//26 46//26
f 25//44 48//44 49//44
f 64//28 59//28 58//28
f 59//29 60//29 57//29
f 21//9 54//9 57//9
f 54//9 53//9 58//9
f 22//3 55//3 54//3
f 55//3 56//3 53//3
f 60//7 67//7 65//7
f 55//11 60//11 59//11
f 35//7 64//7 62//7
f 53//9 63//9 62//9
f 56//3 61//3 63//3
f 18//2 65//2 66//2
f 66//11 65//11 67//11
f 71//11 70//11 69//11
f 56//3 71//3 72//3
f 55//30 68//30 67//30
f 61//31 72//31 69//31
f 64//28 69//28 70//28
f 59//32 70//32 71//32
f 22//3 66//3 68//3
f 82//33 74//33 76//33
f 92//2 80//2 85//2
f 80//34 78//34 87//34
f 96//45 107//45 108//45
f 79//36 77//36 94//36
f 76//37 74//37 96//37
f 93//38 98//38 81//38
f 98//38 100//38 82//38
f 79//34 86//34 88//34
f 85//34 87//34 88//34
f 102//2 86//2 79//2
f 104//2 85//2 86//2
f 81//33 84//33 75//33
f 82//33 83//33 84//33
f 83//2 103//2 101//2
f 103//2 104//2 102//2
f 84//2 101//2 90//2
f 101//2 102//2 89//2
f 87//38 99//38 97//38
f 97//38 99//38 100//38
f 88//38 97//38 94//38
f 97//38 98//38 93//38
f 80//37 92//37 95//37
f 91//37 96//37 95//37
f 75//36 90//36 93//36
f 89//36 94//36 93//36
f 78//38 95//38 99//38
f 99//38 95//38 96//38
f 76//2 91//2 103//2
f 91//2 92//2 104//2
f 108//38 107//38 106//38
f 74//11 106//11 107//11
f 82//7 105//7 106//7
f 82//46 100//46 108//46
