# Blender v3.2.0 OBJ File: 'Windmill.blend'
# www.blender.org
o ShaftBrake_Cube.001
v 0.000837 2.049324 -0.536649
v 0.014550 2.049324 -0.536649
v 0.014550 2.049324 -0.516121
v 0.000837 2.049324 -0.518421
v 0.000837 2.125362 -0.536649
v 0.014550 2.125362 -0.536649
v 0.000837 2.125362 -0.518421
v 0.014550 2.125362 -0.516121
v 0.000837 2.048987 -0.560921
v 0.014550 2.048987 -0.560921
v 0.014550 2.048987 -0.540394
v 0.000837 2.048987 -0.542694
v 0.000837 2.125025 -0.560921
v 0.014550 2.125025 -0.560921
v 0.000837 2.125025 -0.542694
v 0.014550 2.125025 -0.540394
v 0.000837 2.048987 -0.585194
v 0.014550 2.048987 -0.585194
v 0.014550 2.048987 -0.564666
v 0.000837 2.048987 -0.566966
v 0.000837 2.125025 -0.585194
v 0.014550 2.125025 -0.585194
v 0.000837 2.125025 -0.566966
v 0.014550 2.125025 -0.564666
v 0.000837 2.048987 -0.609467
v 0.014550 2.048987 -0.609467
v 0.014550 2.048987 -0.588939
v 0.000837 2.048987 -0.591239
v 0.000837 2.125025 -0.609467
v 0.014550 2.125025 -0.609467
v 0.000837 2.125025 -0.591239
v 0.014550 2.125025 -0.588939
v 0.023424 2.049324 -0.536649
v 0.037137 2.049324 -0.536649
v 0.037137 2.049324 -0.516121
v 0.023424 2.049324 -0.518421
v 0.023424 2.125362 -0.536649
v 0.037137 2.125362 -0.536649
v 0.023424 2.125362 -0.518421
v 0.037137 2.125362 -0.516121
v 0.023424 2.048987 -0.560921
v 0.037137 2.048987 -0.560921
v 0.037137 2.048987 -0.540394
v 0.023424 2.048987 -0.542694
v 0.023424 2.125025 -0.560921
v 0.037137 2.125025 -0.560921
v 0.023424 2.125025 -0.542694
v 0.037137 2.125025 -0.540394
v 0.023424 2.048987 -0.585194
v 0.037137 2.048987 -0.585194
v 0.037137 2.048987 -0.564666
v 0.023424 2.048987 -0.566966
v 0.023424 2.125025 -0.585194
v 0.037137 2.125025 -0.585194
v 0.023424 2.125025 -0.566966
v 0.037137 2.125025 -0.564666
v 0.023424 2.048987 -0.609467
v 0.037137 2.048987 -0.609467
v 0.037137 2.048987 -0.588939
v 0.023424 2.048987 -0.591239
v 0.023424 2.125025 -0.609467
v 0.037137 2.125025 -0.609467
v 0.023424 2.125025 -0.591239
v 0.037137 2.125025 -0.588939
v 0.046011 2.049324 -0.536649
v 0.059724 2.049324 -0.536649
v 0.046011 2.049324 -0.518421
v 0.046011 2.125362 -0.536649
v 0.059724 2.125362 -0.536649
v 0.046011 2.125362 -0.518421
v 0.046011 2.048987 -0.560921
v 0.059724 2.048987 -0.560921
v 0.046011 2.048987 -0.542694
v 0.046011 2.125025 -0.560921
v 0.059724 2.125025 -0.560921
v 0.046011 2.125025 -0.542694
v 0.046011 2.048987 -0.585194
v 0.059724 2.048987 -0.585194
v 0.046011 2.048987 -0.566966
v 0.046011 2.125025 -0.585194
v 0.059724 2.125025 -0.585194
v 0.046011 2.125025 -0.566966
v 0.046011 2.048987 -0.609467
v 0.059724 2.048987 -0.609467
v 0.046011 2.048987 -0.591239
v 0.046011 2.125025 -0.609467
v 0.059724 2.125025 -0.609467
v 0.046011 2.125025 -0.591239
v -0.006632 2.049677 -0.616841
v 0.066856 2.049677 -0.616841
v 0.066856 2.049677 -0.506836
v -0.006632 2.049677 -0.519162
v -0.006632 2.068710 -0.616841
v 0.066856 2.068710 -0.616841
v -0.006632 2.068710 -0.519162
v 0.066856 2.068710 -0.506836
v 0.059724 2.049324 -0.522774
v 0.053163 2.049324 -0.517222
v 0.053163 2.125362 -0.517222
v 0.059724 2.125362 -0.522774
v 0.059724 2.048987 -0.547046
v 0.053163 2.048987 -0.541494
v 0.053163 2.125025 -0.541494
v 0.059724 2.125025 -0.547046
v 0.059724 2.048987 -0.571319
v 0.053163 2.048987 -0.565767
v 0.053163 2.125025 -0.565767
v 0.059724 2.125025 -0.571319
v 0.059724 2.048987 -0.595592
v 0.053163 2.048987 -0.590039
v 0.053163 2.125025 -0.590039
v 0.059724 2.125025 -0.595592
v -0.032594 2.049324 -0.536649
v -0.018881 2.049324 -0.536649
v -0.018881 2.049324 -0.516121
v -0.032594 2.049324 -0.518421
v -0.032594 2.125362 -0.536649
v -0.018881 2.125362 -0.536649
v -0.032594 2.125362 -0.518421
v -0.018881 2.125362 -0.516121
v -0.032594 2.048987 -0.585194
v -0.018881 2.048987 -0.585194
v -0.018881 2.048987 -0.564666
v -0.032594 2.048987 -0.566966
v -0.032594 2.125025 -0.585194
v -0.018881 2.125025 -0.585194
v -0.032594 2.125025 -0.566966
v -0.018881 2.125025 -0.564666
v 0.065072 2.041445 -0.288837
v 0.086664 2.041445 -0.288837
v 0.086664 2.041445 -0.256516
v 0.065072 2.041445 -0.260138
v 0.069386 2.069400 -0.282380
v 0.082350 2.069400 -0.282380
v 0.069386 2.069400 -0.265148
v 0.082350 2.069400 -0.262973
v -0.006632 2.068140 -0.616841
v 0.066856 2.068140 -0.616841
v 0.066856 2.068140 -0.560577
v -0.006632 2.068140 -0.572902
v -0.006632 2.087173 -0.616841
v 0.066856 2.087173 -0.616841
v -0.006632 2.087173 -0.572902
v 0.066856 2.087173 -0.560577
vn 0.0000 -1.0000 0.0000
vn -1.0000 0.0000 0.0000
vn 0.0000 0.0000 -1.0000
vn 0.0000 1.0000 0.0000
vn -0.1654 0.0000 0.9862
vn 1.0000 0.0000 0.0000
vn 0.6460 0.0000 0.7634
vn 0.6460 0.0000 0.7633
vn -0.9883 0.1525 0.0000
vn 0.0000 0.2251 -0.9743
vn -0.1621 0.1983 0.9666
vn 0.9883 0.1525 0.0000
s off
f 2//1 4//1 1//1
f 4//2 5//2 1//2
f 1//3 6//3 2//3
f 6//4 7//4 8//4
f 3//5 7//5 4//5
f 2//6 8//6 3//6
f 10//1 12//1 9//1
f 12//2 13//2 9//2
f 9//3 14//3 10//3
f 14//4 15//4 16//4
f 11//5 15//5 12//5
f 10//6 16//6 11//6
f 18//1 20//1 17//1
f 20//2 21//2 17//2
f 17//3 22//3 18//3
f 22//4 23//4 24//4
f 19//5 23//5 20//5
f 18//6 24//6 19//6
f 26//1 28//1 25//1
f 28//2 29//2 25//2
f 25//3 30//3 26//3
f 30//4 31//4 32//4
f 27//5 31//5 28//5
f 26//6 32//6 27//6
f 34//1 36//1 33//1
f 36//2 37//2 33//2
f 33//3 38//3 34//3
f 38//4 39//4 40//4
f 35//5 39//5 36//5
f 34//6 40//6 35//6
f 42//1 44//1 41//1
f 44//2 45//2 41//2
f 41//3 46//3 42//3
f 46//4 47//4 48//4
f 43//5 47//5 44//5
f 42//6 48//6 43//6
f 50//1 52//1 49//1
f 52//2 53//2 49//2
f 49//3 54//3 50//3
f 54//4 55//4 56//4
f 51//5 55//5 52//5
f 50//6 56//6 51//6
f 58//1 60//1 57//1
f 60//2 61//2 57//2
f 57//3 62//3 58//3
f 62//4 63//4 64//4
f 59//5 63//5 60//5
f 58//6 64//6 59//6
f 98//5 70//5 67//5
f 67//2 68//2 65//2
f 65//3 69//3 66//3
f 72//6 104//6 101//6
f 70//4 99//4 100//4
f 97//1 67//1 65//1
f 102//5 76//5 73//5
f 73//2 74//2 71//2
f 71//3 75//3 72//3
f 78//6 108//6 105//6
f 76//4 103//4 104//4
f 101//1 73//1 71//1
f 106//5 82//5 79//5
f 79//2 80//2 77//2
f 77//3 81//3 78//3
f 84//6 112//6 109//6
f 82//4 107//4 108//4
f 105//1 79//1 77//1
f 110//5 88//5 85//5
f 85//2 86//2 83//2
f 83//3 87//3 84//3
f 88//4 111//4 112//4
f 109//1 85//1 83//1
f 90//1 92//1 89//1
f 92//2 93//2 89//2
f 89//3 94//3 90//3
f 94//4 95//4 96//4
f 91//5 95//5 92//5
f 90//6 96//6 91//6
f 100//7 98//7 97//7
f 104//7 102//7 101//7
f 108//7 106//7 105//7
f 112//8 110//8 109//8
f 66//6 100//6 97//6
f 114//1 116//1 113//1
f 116//2 117//2 113//2
f 113//3 118//3 114//3
f 118//4 119//4 120//4
f 115//5 119//5 116//5
f 114//6 120//6 115//6
f 122//1 124//1 121//1
f 124//2 125//2 121//2
f 121//3 126//3 122//3
f 126//4 127//4 128//4
f 123//5 127//5 124//5
f 122//6 128//6 123//6
f 130//1 132//1 129//1
f 132//9 133//9 129//9
f 129//10 134//10 130//10
f 134//4 135//4 136//4
f 132//11 136//11 135//11
f 130//12 136//12 131//12
f 138//1 140//1 137//1
f 140//2 141//2 137//2
f 137//3 142//3 138//3
f 142//4 143//4 144//4
f 139//5 143//5 140//5
f 138//6 144//6 139//6
f 2//1 3//1 4//1
f 4//2 7//2 5//2
f 1//3 5//3 6//3
f 6//4 5//4 7//4
f 3//5 8//5 7//5
f 2//6 6//6 8//6
f 10//1 11//1 12//1
f 12//2 15//2 13//2
f 9//3 13//3 14//3
f 14//4 13//4 15//4
f 11//5 16//5 15//5
f 10//6 14//6 16//6
f 18//1 19//1 20//1
f 20//2 23//2 21//2
f 17//3 21//3 22//3
f 22//4 21//4 23//4
f 19//5 24//5 23//5
f 18//6 22//6 24//6
f 26//1 27//1 28//1
f 28//2 31//2 29//2
f 25//3 29//3 30//3
f 30//4 29//4 31//4
f 27//5 32//5 31//5
f 26//6 30//6 32//6
f 34//1 35//1 36//1
f 36//2 39//2 37//2
f 33//3 37//3 38//3
f 38//4 37//4 39//4
f 35//5 40//5 39//5
f 34//6 38//6 40//6
f 42//1 43//1 44//1
f 44//2 47//2 45//2
f 41//3 45//3 46//3
f 46//4 45//4 47//4
f 43//5 48//5 47//5
f 42//6 46//6 48//6
f 50//1 51//1 52//1
f 52//2 55//2 53//2
f 49//3 53//3 54//3
f 54//4 53//4 55//4
f 51//5 56//5 55//5
f 50//6 54//6 56//6
f 58//1 59//1 60//1
f 60//2 63//2 61//2
f 57//3 61//3 62//3
f 62//4 61//4 63//4
f 59//5 64//5 63//5
f 58//6 62//6 64//6
f 98//5 99//5 70//5
f 67//2 70//2 68//2
f 65//3 68//3 69//3
f 72//6 75//6 104//6
f 100//4 69//4 68//4
f 68//4 70//4 100//4
f 65//1 66//1 97//1
f 97//1 98//1 67//1
f 102//5 103//5 76//5
f 73//2 76//2 74//2
f 71//3 74//3 75//3
f 78//6 81//6 108//6
f 104//4 75//4 74//4
f 74//4 76//4 104//4
f 71//1 72//1 101//1
f 101//1 102//1 73//1
f 106//5 107//5 82//5
f 79//2 82//2 80//2
f 77//3 80//3 81//3
f 84//6 87//6 112//6
f 108//4 81//4 80//4
f 80//4 82//4 108//4
f 77//1 78//1 105//1
f 105//1 106//1 79//1
f 110//5 111//5 88//5
f 85//2 88//2 86//2
f 83//3 86//3 87//3
f 112//4 87//4 86//4
f 86//4 88//4 112//4
f 83//1 84//1 109//1
f 109//1 110//1 85//1
f 90//1 91//1 92//1
f 92//2 95//2 93//2
f 89//3 93//3 94//3
f 94//4 93//4 95//4
f 91//5 96//5 95//5
f 90//6 94//6 96//6
f 100//8 99//8 98//8
f 104//7 103//7 102//7
f 108//8 107//8 106//8
f 112//7 111//7 110//7
f 66//6 69//6 100//6
f 114//1 115//1 116//1
f 116//2 119//2 117//2
f 113//3 117//3 118//3
f 118//4 117//4 119//4
f 115//5 120//5 119//5
f 114//6 118//6 120//6
f 122//1 123//1 124//1
f 124//2 127//2 125//2
f 121//3 125//3 126//3
f 126//4 125//4 127//4
f 123//5 128//5 127//5
f 122//6 126//6 128//6
f 130//1 131//1 132//1
f 132//9 135//9 133//9
f 129//10 133//10 134//10
f 134//4 133//4 135//4
f 132//11 131//11 136//11
f 130//12 134//12 136//12
f 138//1 139//1 140//1
f 140//2 143//2 141//2
f 137//3 141//3 142//3
f 142//4 141//4 143//4
f 139//5 144//5 143//5
f 138//6 142//6 144//6
