# Blender v3.0.0 OBJ File: 'Windmill.blend'
# www.blender.org
o Icosphere
v -2.092743 -9.807134 -18.751900
v 21.126001 -9.807142 16.938803
v 18.780245 -6.799044 -4.505589
v -13.485640 -9.857687 -19.347664
v 13.863103 -9.857681 22.163792
v -10.865715 1.776749 -16.085602
v 6.093189 1.776792 21.116322
v 10.289453 -8.922759 -14.264367
v -4.659755 11.011084 -3.248415
v 22.460979 -8.922763 6.371820
v 3.332772 11.011130 11.236156
v -11.680296 -10.710521 -19.415043
v -8.948376 -10.749956 -19.364994
v -5.622553 -10.317494 -19.156471
v -7.621667 -2.302157 -17.655445
v -5.567632 -4.928444 -18.342983
v -3.779058 -7.377389 -18.640087
v 7.517982 -9.241054 -15.919787
v 4.521852 -9.385719 -17.184639
v 1.313974 -9.520000 -18.111237
v 2.073683 6.574054 -3.256182
v 7.222420 2.935953 -3.441957
v 12.326506 -1.072352 -3.765111
v 22.655743 -9.241059 9.215340
v 22.529528 -9.385726 12.014281
v 22.035295 -9.520007 14.633738
v 19.777433 -10.317501 18.823229
v 18.056734 -10.749960 20.295406
v 16.053877 -10.710521 21.392399
v 17.807924 -7.377386 18.057697
v 14.452986 -4.928432 19.071930
v 10.925937 -2.302132 19.940426
v 17.088713 -7.044714 -7.197208
v 15.095487 -7.631139 -9.799430
v 12.821942 -8.332447 -12.194427
v 20.154320 -7.044715 -1.817818
v 21.217609 -7.631142 0.871216
v 21.982405 -8.332451 3.591198
v 14.619736 -1.072343 -0.183057
v 11.489406 2.935974 3.225682
v 8.121650 6.574087 6.650062
v -2.521994 11.935667 0.534843
v -0.287703 12.243872 4.253255
v 1.758694 11.935695 7.841973
v 9.363436 5.251578 10.066941
v 13.553640 0.826303 9.030813
v 17.441833 -3.558308 7.908282
v 4.257541 9.479991 14.363858
v 4.785748 7.391317 17.124744
v 5.277570 4.803965 19.411377
v 17.580399 -5.038286 11.066223
v 13.860810 -2.483498 14.482484
v 10.309344 -0.270157 17.612831
v 6.283026 -3.558325 -11.910372
v 3.029089 0.826271 -9.636587
v -0.277426 5.251536 -7.047935
v 3.937883 -5.038298 -14.930367
v -0.666456 -2.483520 -15.499373
v -5.185753 -0.270189 -15.841531
v -6.483884 9.479934 -7.005938
v -8.046576 7.391259 -10.544170
v -9.467347 4.803914 -13.643821
v 7.499999 -1.572789 22.166214
v 9.394241 -4.893122 22.623993
v 11.579370 -7.773993 22.586666
v -13.929047 -7.774006 -19.150677
v -13.423676 -4.893145 -18.675381
v -12.279993 -1.572821 -17.719841
v -0.491868 -5.445550 -17.423931
v -0.856034 -7.219867 -18.109055
v 1.686321 -7.131877 -17.370506
v 3.401527 -6.548384 -16.356773
v -0.453221 -4.304659 -16.761539
v -4.200601 -2.746433 -17.174530
v -2.772323 -4.984200 -17.877125
v 6.308928 6.397985 1.386250
v 2.252844 8.356647 -0.230608
v 6.700538 4.984975 -0.751868
v 10.902643 1.808934 -0.726176
v 8.638344 4.984986 2.245974
v 5.496590 8.356668 5.016445
v 3.477593 8.969435 2.630838
v 15.780347 -1.025579 4.468905
v 11.487562 3.477471 6.973396
v 14.042591 0.738529 3.995518
v 16.952744 -2.847694 1.133154
v 18.174183 -3.849669 2.924490
v 18.351023 -4.069363 5.199969
v 14.896040 -0.124186 6.436858
v 10.847390 1.895304 13.619481
v 8.411428 5.353436 12.863396
v 12.055722 1.517011 11.650393
v 15.109781 -2.060772 11.010792
v 12.178574 -0.134950 13.981711
v 8.869425 2.219843 16.712311
v 8.240522 4.270952 15.144996
v 16.753988 -5.445541 15.500140
v 12.763028 -2.746412 17.706226
v 15.511007 -4.304645 15.064593
v 18.866835 -6.548379 12.258520
v 19.230780 -7.131876 14.029924
v 18.718481 -7.219865 16.093082
v 15.595874 -4.984189 17.216343
v 8.366048 -1.025601 -7.673318
v 9.185675 -4.069376 -10.400047
v 11.266304 -3.849681 -8.598674
v 12.316053 -2.847706 -6.394010
v 7.842753 0.738505 -5.919391
v 3.588086 3.477437 -6.088708
v 6.012284 -0.124212 -8.457760
v -1.835406 1.895265 -12.164409
v 2.591393 -2.060796 -13.057950
v 0.220028 1.516975 -11.043309
v -2.893615 5.353389 -9.082460
v -4.513947 4.270905 -11.497331
v -5.220578 2.219802 -13.856404
v -1.233770 -0.134982 -13.762822
v 13.744824 -6.632102 21.061646
v 13.753352 -8.281588 21.733215
v 11.863645 -5.871057 21.775742
v 10.810121 -3.656557 21.242325
v 13.881845 -5.681874 20.387722
v 16.823938 -7.916252 19.607117
v 15.586481 -8.401680 20.773693
v -9.590410 -6.632113 -18.983765
v -11.718860 -8.281595 -19.211525
v -9.331693 -8.401685 -19.185291
v -6.677079 -7.916254 -18.997768
v -7.998041 -5.681885 -18.742496
v -9.921273 -3.656579 -18.318600
v -11.264632 -5.871073 -18.874889
vt 0.210702 0.331414
vt 0.227273 0.341164
vt 0.227274 0.329820
vt 0.237098 0.346837
vt 0.217449 0.346837
vt 0.227431 0.360392
vt 0.243688 0.331688
vt 0.181819 0.314921
vt 0.207703 0.314921
vt 0.193183 0.334604
vt 0.227274 0.314921
vt 0.240294 0.371235
vt 0.215910 0.373969
vt 0.227273 0.393651
vt 0.204546 0.354286
vt 0.246805 0.314989
vt 0.259707 0.337337
vt 0.272728 0.314921
vt 0.250001 0.354286
vt 0.437658 0.410145
vt 0.454546 0.419895
vt 0.454546 0.408550
vt 0.464371 0.425567
vt 0.444721 0.425567
vt 0.454546 0.439395
vt 0.471434 0.410145
vt 0.409092 0.393652
vt 0.431819 0.393652
vt 0.420455 0.413334
vt 0.454546 0.393652
vt 0.465910 0.452699
vt 0.443182 0.452699
vt 0.454546 0.472382
vt 0.477273 0.433017
vt 0.431819 0.433017
vt 0.500001 0.393652
vt 0.488637 0.413334
vt 0.477273 0.393652
vt 0.626539 0.425567
vt 0.636364 0.408550
vt 0.619792 0.410145
vt 0.636364 0.439395
vt 0.636364 0.419895
vt 0.652936 0.410145
vt 0.646189 0.425567
vt 0.602273 0.413334
vt 0.616793 0.393652
vt 0.590909 0.393651
vt 0.613637 0.433017
vt 0.636364 0.393652
vt 0.636364 0.472382
vt 0.625000 0.452699
vt 0.647728 0.452699
vt 0.681818 0.393651
vt 0.670455 0.413334
vt 0.655895 0.393583
vt 0.659091 0.433017
vt 0.619792 0.377158
vt 0.636364 0.367408
vt 0.626539 0.361736
vt 0.646189 0.361736
vt 0.636364 0.378753
vt 0.652778 0.376885
vt 0.636522 0.348181
vt 0.602273 0.373969
vt 0.613637 0.354286
vt 0.668798 0.371235
vt 0.659091 0.354286
vt 0.636364 0.314921
vt 0.649385 0.337337
vt 0.625000 0.334604
vt 0.671994 0.346837
vt 0.681819 0.329820
vt 0.665404 0.331688
vt 0.681661 0.360392
vt 0.681819 0.341165
vt 0.698391 0.331414
vt 0.691643 0.346837
vt 0.662287 0.314989
vt 0.681819 0.314921
vt 0.693182 0.373969
vt 0.704546 0.354286
vt 0.727273 0.314921
vt 0.715909 0.334604
vt 0.701389 0.314921
vt 0.256156 0.410145
vt 0.272728 0.419895
vt 0.272728 0.408550
vt 0.272728 0.439395
vt 0.262903 0.425567
vt 0.282553 0.425567
vt 0.289300 0.410145
vt 0.253197 0.393583
vt 0.238637 0.413334
vt 0.272728 0.393652
vt 0.272728 0.472382
vt 0.261364 0.452699
vt 0.284092 0.452699
vt 0.250001 0.433017
vt 0.292299 0.393652
vt 0.306819 0.413334
vt 0.318182 0.393651
vt 0.295455 0.433017
vt 0.272728 0.378753
vt 0.262903 0.361736
vt 0.256314 0.376885
vt 0.289300 0.377158
vt 0.272728 0.367408
vt 0.272570 0.348181
vt 0.282553 0.361736
vt 0.306819 0.373969
vt 0.295455 0.354286
vt 0.284092 0.334604
vt 0.681819 0.269177
vt 0.681819 0.288678
vt 0.691643 0.283005
vt 0.681819 0.300022
vt 0.671994 0.283005
vt 0.665247 0.298428
vt 0.698391 0.298428
vt 0.681819 0.236191
vt 0.693182 0.255874
vt 0.670455 0.255874
vt 0.704546 0.275556
vt 0.647728 0.295239
vt 0.659091 0.275556
vt 0.715909 0.295239
vt 0.227274 0.269177
vt 0.227274 0.288678
vt 0.237098 0.283005
vt 0.210702 0.298428
vt 0.217449 0.283005
vt 0.243845 0.298428
vt 0.227274 0.300022
vt 0.227274 0.236191
vt 0.238637 0.255874
vt 0.215910 0.255874
vt 0.250001 0.275556
vt 0.193183 0.295239
vt 0.204546 0.275556
vt 0.261364 0.295239
vn -0.2446 -0.3052 0.9203
vn -0.3423 -0.4381 0.8312
vn -0.2789 -0.4452 0.8509
vn -0.1680 -0.1613 0.9725
vn -0.2623 -0.2483 0.9325
vn -0.1643 -0.2362 0.9577
vn -0.3950 -0.5155 0.7604
vn -0.3979 -0.5513 0.7333
vn -0.3430 -0.3854 0.8566
vn -0.2145 -0.4947 0.8422
vn -0.1767 -0.3763 0.9095
vn -0.3256 -0.5453 0.7724
vn -0.5214 -0.7610 0.3861
vn -0.5630 -0.7420 0.3639
vn -0.5720 -0.7685 0.2867
vn -0.4856 -0.7455 0.4566
vn -0.5011 -0.7323 0.4611
vn -0.5170 -0.7698 0.3744
vn -0.5899 -0.7137 0.3777
vn -0.6115 -0.7323 0.2996
vn -0.5400 -0.7224 0.4319
vn -0.6087 -0.7839 0.1228
vn -0.5540 -0.7888 0.2663
vn -0.6164 -0.7610 0.2023
vn -0.7255 -0.6881 0.0104
vn -0.7231 -0.6807 0.1177
vn -0.7636 -0.6457 -0.0030
vn -0.6931 -0.7203 -0.0269
vn -0.6788 -0.7269 0.1047
vn -0.7348 -0.6672 -0.1219
vn -0.6741 -0.6896 0.2647
vn -0.7395 -0.6594 0.1354
vn -0.6735 -0.7077 0.2137
vn -0.7624 -0.6471 -0.0062
vn -0.7662 -0.6275 -0.1388
vn -0.7648 -0.6424 0.0494
vn -0.7342 -0.5905 -0.3351
vn -0.7398 -0.5667 -0.3626
vn -0.7284 -0.5504 -0.4081
vn -0.7212 -0.6821 -0.1207
vn -0.7409 -0.6313 -0.2292
vn -0.7231 -0.6103 -0.3234
vn -0.7413 -0.6197 -0.2579
vn -0.7224 -0.6056 -0.3336
vn -0.7529 -0.5965 -0.2780
vn -0.6726 -0.5627 -0.4806
vn -0.7174 -0.5483 -0.4297
vn -0.7087 -0.5901 -0.3868
vn -0.6281 -0.7488 -0.2117
vn -0.6369 -0.7544 -0.1585
vn -0.6265 -0.7564 -0.1878
vn -0.6464 -0.6513 -0.3974
vn -0.6754 -0.6800 -0.2854
vn -0.6123 -0.7019 -0.3639
vn -0.6461 -0.7622 -0.0411
vn -0.6138 -0.7865 -0.0683
vn -0.6844 -0.6928 -0.2271
vn -0.6321 -0.6981 -0.3363
vn -0.6253 -0.6996 -0.3459
vn -0.6206 -0.7684 -0.1565
vn -0.4526 -0.6595 0.6002
vn -0.4903 -0.6815 0.5432
vn -0.4622 -0.6831 0.5655
vn -0.4459 -0.6174 0.6481
vn -0.4586 -0.6474 0.6087
vn -0.4492 -0.6508 0.6121
vn -0.5596 -0.7162 0.4170
vn -0.5170 -0.7084 0.4805
vn -0.5037 -0.6758 0.5381
vn -0.4647 -0.7061 0.5344
vn -0.4545 -0.6777 0.5780
vn -0.4816 -0.7080 0.5165
vn -0.4396 -0.6440 0.6262
vn -0.4475 -0.6674 0.5952
vn -0.3942 -0.6318 0.6674
vn -0.4455 -0.6173 0.6485
vn -0.4534 -0.6518 0.6080
vn -0.4221 -0.6117 0.6691
vn -0.4784 -0.7073 0.5205
vn -0.4360 -0.6774 0.5925
vn -0.4556 -0.6779 0.5769
vn -0.2774 -0.5223 0.8064
vn -0.3621 -0.5842 0.7264
vn -0.3660 -0.6250 0.6895
vn -0.4537 -0.3380 -0.8245
vn -0.4882 -0.4169 -0.7667
vn -0.5231 -0.4321 -0.7346
vn -0.4108 -0.2668 -0.8718
vn -0.4089 -0.3054 -0.8600
vn -0.4606 -0.3156 -0.8296
vn -0.5517 -0.4515 -0.7012
vn -0.5610 -0.5482 -0.6203
vn -0.4600 -0.3735 -0.8056
vn -0.5998 -0.5525 -0.5788
vn -0.5308 -0.4110 -0.7412
vn -0.5892 -0.5701 -0.5725
vn 0.0014 -0.1386 0.9904
vn -0.0481 -0.1200 0.9916
vn -0.0166 -0.2199 0.9754
vn 0.0061 -0.0928 0.9957
vn -0.0152 -0.0837 0.9964
vn 0.0161 -0.1655 0.9861
vn -0.0970 -0.1128 0.9889
vn -0.0870 -0.1823 0.9794
vn -0.0509 -0.0881 0.9948
vn -0.0769 -0.4108 0.9085
vn -0.0003 -0.2765 0.9610
vn -0.0638 -0.2991 0.9521
vn -0.2563 -0.3020 0.9182
vn -0.3731 -0.4564 0.8078
vn -0.2632 -0.4777 0.8382
vn -0.1693 -0.1607 0.9724
vn -0.2591 -0.2490 0.9332
vn -0.1612 -0.2376 0.9579
vn -0.4277 -0.5358 0.7280
vn -0.3976 -0.5537 0.7317
vn -0.3661 -0.3910 0.8445
vn -0.1848 -0.5218 0.8328
vn -0.1591 -0.3867 0.9084
vn -0.3188 -0.5648 0.7611
vn -0.5230 -0.7520 0.4012
vn -0.5780 -0.7255 0.3736
vn -0.4869 -0.7397 0.4646
vn -0.5010 -0.7326 0.4608
vn -0.5070 -0.7725 0.3824
vn -0.6000 -0.7017 0.3841
vn -0.6225 -0.7234 0.2987
vn -0.5433 -0.7153 0.4394
vn -0.6497 -0.7542 0.0959
vn -0.5687 -0.7813 0.2572
vn -0.6316 -0.7500 0.1965
vn -0.7126 -0.7016 0.0012
vn -0.7257 -0.6783 0.1154
vn -0.7582 -0.6506 -0.0427
vn -0.6744 -0.7373 -0.0403
vn -0.6668 -0.7376 0.1062
vn -0.7297 -0.6709 -0.1318
vn -0.6617 -0.6977 0.2745
vn -0.7313 -0.6667 0.1438
vn -0.6658 -0.7138 0.2174
vn -0.7421 -0.6586 -0.1249
vn -0.7585 -0.6314 -0.1612
vn -0.7619 -0.6477 -0.0033
vn -0.7336 -0.5903 -0.3367
vn -0.7517 -0.5561 -0.3545
vn -0.7336 -0.5401 -0.4125
vn -0.6961 -0.6859 -0.2120
vn -0.7315 -0.6339 -0.2512
vn -0.7301 -0.5946 -0.3368
vn -0.7412 -0.6198 -0.2579
vn -0.7306 -0.5948 -0.3353
vn -0.7550 -0.5954 -0.2747
vn -0.7209 -0.4772 -0.5025
vn -0.7276 -0.5267 -0.4395
vn -0.7262 -0.5628 -0.3948
vn -0.6187 -0.7559 -0.2143
vn -0.6102 -0.7812 -0.1320
vn -0.6184 -0.7562 -0.2140
vn -0.6436 -0.6528 -0.3994
vn -0.6641 -0.6921 -0.2826
vn -0.6161 -0.7014 -0.3584
vn -0.6666 -0.7201 -0.1928
vn -0.6126 -0.7795 -0.1309
vn -0.6577 -0.7241 -0.2075
vn -0.6275 -0.6972 -0.3467
vn -0.6186 -0.6984 -0.3600
vn -0.6137 -0.7675 -0.1851
vn -0.4508 -0.6599 0.6011
vn -0.4904 -0.6833 0.5409
vn -0.4525 -0.6927 0.5617
vn -0.4018 -0.6246 0.6697
vn -0.4479 -0.6489 0.6152
vn -0.4364 -0.6548 0.6171
vn -0.5565 -0.6875 0.4665
vn -0.5186 -0.7000 0.4910
vn -0.4971 -0.6761 0.5439
vn -0.4586 -0.7114 0.5325
vn -0.4463 -0.6817 0.5797
vn -0.4792 -0.7127 0.5122
vn -0.4581 -0.6297 0.6274
vn -0.4438 -0.6681 0.5973
vn -0.3924 -0.6380 0.6626
vn -0.4504 -0.6123 0.6498
vn -0.4625 -0.6476 0.6056
vn -0.4274 -0.6020 0.6745
vn -0.4633 -0.6856 0.5615
vn -0.4358 -0.6752 0.5951
vn -0.4701 -0.6732 0.5708
vn -0.2507 -0.6056 0.7552
vn -0.3525 -0.6099 0.7098
vn -0.3605 -0.6477 0.6712
vn -0.4506 -0.3386 -0.8260
vn -0.4722 -0.4636 -0.7497
vn -0.5331 -0.4369 -0.7245
vn -0.4055 -0.2671 -0.8742
vn -0.4149 -0.3036 -0.8578
vn -0.4562 -0.3153 -0.8321
vn -0.5312 -0.5631 -0.6331
vn -0.5544 -0.5954 -0.5816
vn -0.4357 -0.4013 -0.8057
vn -0.6025 -0.5534 -0.5751
vn -0.5344 -0.4118 -0.7382
vn -0.5849 -0.5679 -0.5791
vn -0.0167 -0.1156 0.9932
vn -0.0608 -0.1487 0.9870
vn -0.0375 -0.2220 0.9743
vn -0.0023 -0.0835 0.9965
vn -0.0194 -0.0794 0.9967
vn -0.0043 -0.1375 0.9905
vn -0.1016 -0.1100 0.9887
vn -0.1067 -0.1749 0.9788
vn -0.0547 -0.0851 0.9949
vn -0.0669 -0.3448 0.9363
vn -0.0163 -0.2343 0.9720
vn -0.1006 -0.2945 0.9504
s off
f 70/1/1 69/2/1 75/3/1
f 73/4/2 71/5/2 72/6/2
f 75/3/3 73/4/3 74/7/3
f 1/8/4 70/1/4 17/9/4
f 20/10/5 71/5/5 70/1/5
f 17/9/6 75/3/6 16/11/6
f 57/12/7 18/13/7 8/14/7
f 57/12/8 73/4/8 72/6/8
f 72/6/9 19/15/9 18/13/9
f 15/16/10 59/17/10 6/18/10
f 16/11/11 74/7/11 15/16/11
f 74/7/12 58/19/12 59/17/12
f 77/20/13 76/21/13 82/22/13
f 80/23/14 78/24/14 79/25/14
f 81/26/15 76/21/15 80/23/15
f 9/27/16 77/20/16 42/28/16
f 21/29/17 78/24/17 77/20/17
f 77/20/18 43/30/18 42/28/18
f 39/31/19 23/32/19 3/33/19
f 40/34/20 79/25/20 39/31/20
f 79/25/21 22/35/21 23/32/21
f 11/36/22 81/26/22 41/37/22
f 44/38/23 82/22/23 81/26/23
f 41/37/24 80/23/24 40/34/24
f 85/39/25 89/40/25 84/41/25
f 86/42/26 83/43/26 85/39/26
f 88/44/27 83/43/27 87/45/27
f 41/46/28 45/47/28 11/48/28
f 40/49/29 84/41/29 41/46/29
f 84/41/30 46/50/30 45/47/30
f 3/51/31 86/42/31 39/52/31
f 36/53/32 87/45/32 86/42/32
f 39/52/33 85/39/33 40/49/33
f 10/54/34 88/44/34 38/55/34
f 47/56/35 89/40/35 88/44/35
f 38/55/36 87/45/36 37/57/36
f 91/58/37 90/59/37 96/60/37
f 94/61/38 92/62/38 93/63/38
f 95/64/39 90/59/39 94/61/39
f 11/48/40 91/58/40 48/65/40
f 45/47/41 92/62/41 91/58/41
f 91/58/42 49/66/42 48/65/42
f 51/67/43 47/56/43 10/54/43
f 52/68/44 93/63/44 51/67/44
f 93/63/45 46/50/45 47/56/45
f 7/69/46 95/64/46 53/70/46
f 50/71/47 96/60/47 95/64/47
f 53/70/48 94/61/48 52/68/48
f 99/72/49 103/73/49 98/74/49
f 100/75/50 97/76/50 99/72/50
f 102/77/51 97/76/51 101/78/51
f 53/70/52 32/79/52 7/69/52
f 52/68/53 98/74/53 53/70/53
f 98/74/54 31/80/54 32/79/54
f 24/81/55 51/67/55 10/54/55
f 25/82/56 100/75/56 24/81/56
f 51/67/57 99/72/57 52/68/57
f 2/83/58 102/77/58 26/84/58
f 30/85/59 103/73/59 102/77/59
f 26/84/60 101/78/60 25/82/60
f 105/86/61 104/87/61 110/88/61
f 107/89/62 104/87/62 106/90/62
f 110/88/63 108/91/63 109/92/63
f 8/14/64 105/86/64 54/93/64
f 35/94/65 106/90/65 105/86/65
f 54/93/66 110/88/66 55/95/66
f 3/96/67 107/89/67 33/97/67
f 23/98/68 108/91/68 107/89/68
f 107/89/69 34/99/69 33/97/69
f 56/100/70 21/101/70 9/102/70
f 55/95/71 109/92/71 56/100/71
f 109/92/72 22/103/72 21/101/72
f 113/104/73 117/105/73 112/106/73
f 114/107/74 111/108/74 113/104/74
f 116/109/75 111/108/75 115/110/75
f 54/93/76 57/12/76 8/14/76
f 55/95/77 112/106/77 54/93/77
f 112/106/78 58/19/78 57/12/78
f 60/111/79 56/100/79 9/102/79
f 61/112/80 114/107/80 60/111/80
f 56/100/81 113/104/81 55/95/81
f 6/18/82 116/109/82 62/113/82
f 59/17/83 117/105/83 116/109/83
f 62/113/84 115/110/84 61/112/84
f 119/114/85 118/115/85 124/116/85
f 122/117/86 120/118/86 121/119/86
f 124/116/87 122/117/87 123/120/87
f 5/121/88 119/114/88 29/122/88
f 65/123/89 120/118/89 119/114/89
f 29/122/90 124/116/90 28/124/90
f 32/79/91 63/125/91 7/69/91
f 31/80/92 121/119/92 32/79/92
f 121/119/93 64/126/93 63/125/93
f 27/127/94 30/85/94 2/83/94
f 28/124/95 123/120/95 27/127/95
f 123/120/96 31/80/96 30/85/96
f 126/128/97 125/129/97 131/130/97
f 128/131/98 125/129/98 127/132/98
f 130/133/99 125/129/99 129/134/99
f 4/135/100 126/128/100 66/136/100
f 12/137/101 127/132/101 126/128/101
f 66/136/102 131/130/102 67/138/102
f 17/9/103 14/139/103 1/8/103
f 16/11/104 128/131/104 17/9/104
f 128/131/105 13/140/105 14/139/105
f 68/141/106 15/16/106 6/18/106
f 67/138/107 130/133/107 68/141/107
f 15/16/108 129/134/108 16/11/108
f 70/1/109 71/5/109 69/2/109
f 73/4/110 69/2/110 71/5/110
f 75/3/111 69/2/111 73/4/111
f 1/8/112 20/10/112 70/1/112
f 20/10/113 19/15/113 71/5/113
f 17/9/114 70/1/114 75/3/114
f 57/12/115 72/6/115 18/13/115
f 57/12/116 58/19/116 73/4/116
f 72/6/117 71/5/117 19/15/117
f 15/16/118 74/7/118 59/17/118
f 16/11/119 75/3/119 74/7/119
f 74/7/120 73/4/120 58/19/120
f 77/20/121 78/24/121 76/21/121
f 80/23/122 76/21/122 78/24/122
f 81/26/15 82/22/15 76/21/15
f 9/27/123 21/29/123 77/20/123
f 21/29/124 22/35/124 78/24/124
f 77/20/125 82/22/125 43/30/125
f 39/31/126 79/25/126 23/32/126
f 40/34/127 80/23/127 79/25/127
f 79/25/128 78/24/128 22/35/128
f 11/36/129 44/38/129 81/26/129
f 44/38/130 43/30/130 82/22/130
f 41/37/131 81/26/131 80/23/131
f 85/39/132 83/43/132 89/40/132
f 86/42/133 87/45/133 83/43/133
f 88/44/134 89/40/134 83/43/134
f 41/46/135 84/41/135 45/47/135
f 40/49/136 85/39/136 84/41/136
f 84/41/137 89/40/137 46/50/137
f 3/51/138 36/53/138 86/42/138
f 36/53/139 37/57/139 87/45/139
f 39/52/140 86/42/140 85/39/140
f 10/54/141 47/56/141 88/44/141
f 47/56/142 46/50/142 89/40/142
f 38/55/143 88/44/143 87/45/143
f 91/58/144 92/62/144 90/59/144
f 94/61/145 90/59/145 92/62/145
f 95/64/146 96/60/146 90/59/146
f 11/48/147 45/47/147 91/58/147
f 45/47/148 46/50/148 92/62/148
f 91/58/149 96/60/149 49/66/149
f 51/67/150 93/63/150 47/56/150
f 52/68/151 94/61/151 93/63/151
f 93/63/152 92/62/152 46/50/152
f 7/69/153 50/71/153 95/64/153
f 50/71/154 49/66/154 96/60/154
f 53/70/155 95/64/155 94/61/155
f 99/72/156 97/76/156 103/73/156
f 100/75/157 101/78/157 97/76/157
f 102/77/158 103/73/158 97/76/158
f 53/70/159 98/74/159 32/79/159
f 52/68/160 99/72/160 98/74/160
f 98/74/161 103/73/161 31/80/161
f 24/81/162 100/75/162 51/67/162
f 25/82/163 101/78/163 100/75/163
f 51/67/164 100/75/164 99/72/164
f 2/83/165 30/85/165 102/77/165
f 30/85/166 31/80/166 103/73/166
f 26/84/167 102/77/167 101/78/167
f 105/86/168 106/90/168 104/87/168
f 107/89/169 108/91/169 104/87/169
f 110/88/170 104/87/170 108/91/170
f 8/14/171 35/94/171 105/86/171
f 35/94/172 34/99/172 106/90/172
f 54/93/173 105/86/173 110/88/173
f 3/96/174 23/98/174 107/89/174
f 23/98/175 22/103/175 108/91/175
f 107/89/176 106/90/176 34/99/176
f 56/100/177 109/92/177 21/101/177
f 55/95/178 110/88/178 109/92/178
f 109/92/179 108/91/179 22/103/179
f 113/104/180 111/108/180 117/105/180
f 114/107/181 115/110/181 111/108/181
f 116/109/182 117/105/182 111/108/182
f 54/93/183 112/106/183 57/12/183
f 55/95/184 113/104/184 112/106/184
f 112/106/185 117/105/185 58/19/185
f 60/111/186 114/107/186 56/100/186
f 61/112/187 115/110/187 114/107/187
f 56/100/188 114/107/188 113/104/188
f 6/18/189 59/17/189 116/109/189
f 59/17/190 58/19/190 117/105/190
f 62/113/191 116/109/191 115/110/191
f 119/114/192 120/118/192 118/115/192
f 122/117/193 118/115/193 120/118/193
f 124/116/194 118/115/194 122/117/194
f 5/121/195 65/123/195 119/114/195
f 65/123/196 64/126/196 120/118/196
f 29/122/197 119/114/197 124/116/197
f 32/79/198 121/119/198 63/125/198
f 31/80/199 122/117/199 121/119/199
f 121/119/200 120/118/200 64/126/200
f 27/127/201 123/120/201 30/85/201
f 28/124/202 124/116/202 123/120/202
f 123/120/203 122/117/203 31/80/203
f 126/128/204 127/132/204 125/129/204
f 128/131/205 129/134/205 125/129/205
f 130/133/206 131/130/206 125/129/206
f 4/135/207 12/137/207 126/128/207
f 12/137/208 13/140/208 127/132/208
f 66/136/209 126/128/209 131/130/209
f 17/9/210 128/131/210 14/139/210
f 16/11/211 129/134/211 128/131/211
f 128/131/212 127/132/212 13/140/212
f 68/141/213 130/133/213 15/16/213
f 67/138/214 131/130/214 130/133/214
f 15/16/215 130/133/215 129/134/215
