# Blender v3.2.0 OBJ File: 'Windmill.blend'
# www.blender.org
o StraightBladeCurvedDetailed_Plane.002
v -2.887496 -0.001177 -0.121446
v 0.112500 0.000000 -0.121446
v -2.887498 -0.004522 -0.093327
v 0.112500 0.000000 0.036488
v -0.184342 -0.015875 -0.139284
v -0.184134 -0.061129 0.175166
v -0.110428 -0.007733 -0.130893
v -0.110676 -0.002712 0.028403
v -0.343187 -0.057105 0.145393
v -0.502682 -0.039503 0.112992
v -0.661296 -0.026899 0.085725
v -0.820271 -0.024354 0.058961
v -0.979247 -0.021809 0.037367
v -1.138223 -0.019264 0.020737
v -1.297198 -0.016719 0.006005
v -1.456174 -0.014174 -0.003711
v -1.615150 -0.011628 -0.009295
v -1.774125 -0.009083 -0.014960
v -1.933344 -0.006537 -0.023845
v -2.092393 -0.005903 -0.031547
v -2.251414 -0.005627 -0.038087
v -2.410435 -0.005351 -0.047072
v -2.569456 -0.005075 -0.057780
v -2.728477 -0.004798 -0.070341
v -2.728478 -0.000057 -0.121446
v -2.569457 0.000000 -0.121446
v -2.410435 0.000000 -0.121446
v -2.251414 0.000000 -0.121446
v -2.092392 0.000000 -0.121446
v -1.933371 0.000000 -0.121446
v -1.774321 -0.000457 -0.121446
v -1.615309 -0.000365 -0.121446
v -1.456296 -0.000249 -0.121446
v -1.297283 -0.000057 -0.121446
v -1.138263 0.000000 -0.121446
v -0.979241 0.000000 -0.121446
v -0.820220 0.000000 -0.121446
v -0.661198 0.000000 -0.121446
v -0.502120 -0.000047 -0.121446
v -0.342947 -0.008204 -0.124453
v -2.887496 -0.003912 -0.097344
v -2.887495 -0.003346 -0.101361
v -2.887494 -0.002824 -0.105378
v -2.887494 -0.002346 -0.109395
v -2.887495 -0.001912 -0.113412
v -2.887495 -0.001523 -0.117429
v 0.112500 0.000000 -0.098884
v 0.112500 0.000000 -0.076322
v 0.112500 0.000000 -0.053760
v 0.112500 0.000000 -0.031198
v 0.112500 0.000000 -0.008636
v 0.112500 0.000000 0.013926
v -0.183856 -0.006317 -0.089496
v -0.184045 -0.001215 -0.041688
v -0.184134 -0.001676 0.004140
v -0.184134 -0.006628 0.047990
v -0.184134 -0.018327 0.090420
v -0.184134 -0.037687 0.132793
v -0.110434 -0.006348 -0.108811
v -0.110477 -0.004142 -0.085818
v -0.110559 -0.002044 -0.062516
v -0.110639 -0.000591 -0.039292
v -0.110675 -0.000014 -0.016340
v -0.110676 -0.000749 0.006242
v -2.728478 -0.000268 -0.114145
v -2.728476 -0.000634 -0.106844
v -2.728475 -0.001157 -0.099544
v -2.728474 -0.001835 -0.092243
v -2.728473 -0.002668 -0.084943
v -2.728474 -0.003656 -0.077642
v -2.569457 -0.000012 -0.112351
v -2.569456 -0.000217 -0.103255
v -2.569454 -0.000678 -0.094160
v -2.569453 -0.001394 -0.085065
v -2.569452 -0.002366 -0.075970
v -2.569452 -0.003593 -0.066875
v -2.410435 0.000000 -0.110821
v -2.410435 -0.000029 -0.100196
v -2.410434 -0.000357 -0.089571
v -2.410432 -0.001054 -0.078946
v -2.410430 -0.002118 -0.068321
v -2.410431 -0.003551 -0.057697
v -2.251414 0.000000 -0.109537
v -2.251414 0.000000 -0.097629
v -2.251413 -0.000160 -0.085721
v -2.251411 -0.000797 -0.073812
v -2.251409 -0.001920 -0.061904
v -2.251409 -0.003530 -0.049995
v -2.092392 0.000000 -0.108603
v -2.092392 0.000000 -0.095760
v -2.092392 -0.000063 -0.082918
v -2.092390 -0.000632 -0.070075
v -2.092388 -0.001795 -0.057232
v -2.092387 -0.003551 -0.044390
v -1.933371 0.000000 -0.107503
v -1.933371 -0.000008 -0.093560
v -1.933367 -0.000068 -0.079617
v -1.933359 -0.000595 -0.065674
v -1.933349 -0.001860 -0.051731
v -1.933342 -0.003846 -0.037788
v -1.774283 -0.001034 -0.106233
v -1.774234 -0.001838 -0.091021
v -1.774181 -0.002865 -0.075809
v -1.774133 -0.004109 -0.060597
v -1.774098 -0.005565 -0.045385
v -1.774091 -0.007226 -0.030172
v -1.615275 -0.001020 -0.105424
v -1.615227 -0.002000 -0.089402
v -1.615174 -0.003302 -0.073381
v -1.615126 -0.004922 -0.057359
v -1.615094 -0.006853 -0.041338
v -1.615096 -0.009091 -0.025316
v -1.456265 -0.000938 -0.104626
v -1.456219 -0.002067 -0.087807
v -1.456166 -0.003631 -0.070988
v -1.456117 -0.005628 -0.054169
v -1.456088 -0.008054 -0.037349
v -1.456100 -0.010904 -0.020530
v -1.297261 -0.000625 -0.103238
v -1.297219 -0.001800 -0.085031
v -1.297164 -0.003581 -0.066824
v -1.297112 -0.005966 -0.048617
v -1.297082 -0.008953 -0.030410
v -1.297100 -0.012538 -0.012203
v -1.138257 -0.000185 -0.101134
v -1.138224 -0.001189 -0.080822
v -1.138169 -0.003063 -0.060510
v -1.138111 -0.005808 -0.040198
v -1.138075 -0.009423 -0.019887
v -1.138096 -0.013909 0.000425
v -0.979241 0.000000 -0.098758
v -0.979225 -0.000553 -0.076071
v -0.979176 -0.002333 -0.053383
v -0.979111 -0.005344 -0.030696
v -0.979066 -0.009591 -0.008008
v -0.979089 -0.015078 0.014680
v -0.820220 0.000000 -0.095673
v -0.820219 -0.000048 -0.069901
v -0.820185 -0.001342 -0.044129
v -0.820117 -0.004408 -0.018356
v -0.820059 -0.009256 0.007416
v -0.820078 -0.015900 0.033189
v -0.661198 0.000000 -0.091850
v -0.661198 0.000000 -0.062254
v -0.661189 -0.000393 -0.032658
v -0.661128 -0.003102 -0.003063
v -0.661055 -0.008404 0.026533
v -0.661061 -0.016325 0.056129
v -0.502141 -0.000033 -0.087955
v -0.502173 -0.000007 -0.054464
v -0.502177 -0.000001 -0.020972
v -0.502143 -0.002789 0.012519
v -0.502087 -0.010810 0.046010
v -0.502182 -0.023425 0.079501
v -0.342778 -0.004204 -0.085816
v -0.342962 -0.001555 -0.046545
v -0.343138 -0.002898 -0.007401
v -0.343155 -0.009657 0.031034
v -0.343156 -0.020309 0.069153
v -0.343184 -0.036975 0.107273
v -0.147405 -0.022340 0.101917
v -0.184134 -0.048615 0.153979
v -0.110676 -0.001599 0.017378
v -0.263645 -0.061228 0.160279
v -0.343193 -0.047379 0.126333
v -0.183933 -0.003241 -0.065345
v -0.184120 -0.000455 -0.018527
v -0.184134 -0.003831 0.026313
v -0.184134 -0.009991 0.069233
v -0.184134 -0.027891 0.111606
v -0.110664 -0.000183 -0.027774
v -0.110676 -0.000215 -0.004999
v -0.343154 -0.014528 0.050093
v -0.343168 -0.026733 0.088213
v -0.147405 -0.001039 0.004818
v -0.147405 -0.004467 0.037913
v -0.147405 -0.011034 0.070008
v -0.263645 -0.008848 0.039484
v -0.263645 -0.018074 0.079786
v -0.263645 -0.038540 0.120033
v -0.263645 -0.048790 0.139093
v -0.147405 -0.014364 0.080730
v -0.147405 -0.001940 0.016059
v -0.147405 -0.006216 0.048789
v -0.263645 -0.012528 0.058600
v -0.263645 -0.027299 0.098846
vn 0.0056 -0.9949 -0.1005
vn 0.0851 -0.8775 -0.4719
vn -0.0851 -0.8855 -0.4568
vn 0.0202 -0.9885 -0.1501
vn 0.0109 -0.9879 -0.1546
vn 0.0095 -0.9869 -0.1608
vn 0.0082 -0.9859 -0.1670
vn 0.0060 -0.9848 -0.1734
vn 0.0057 -0.9836 -0.1801
vn -0.0118 -0.9818 -0.1895
vn -0.0079 -0.9926 -0.1212
vn -0.0066 -0.9877 -0.1564
vn -0.0001 -0.9816 -0.1908
vn 0.0094 -0.9746 -0.2237
vn 0.0157 -0.9669 -0.2548
vn 0.0281 -0.9584 -0.2842
vn 0.0423 -0.9494 -0.3111
vn 0.0074 -0.9417 -0.3364
vn -0.0033 -0.8777 -0.4791
vn -0.0262 -0.9997 0.0004
vn -0.0262 -0.9997 0.0007
vn -0.0097 -1.0000 0.0002
vn -0.0111 -0.9965 -0.0829
vn -0.0163 -0.9687 -0.2476
vn 0.0076 -0.8809 -0.4733
vn -0.0003 -1.0000 0.0000
vn -0.0002 -1.0000 0.0000
vn 0.0006 -0.9999 -0.0133
vn 0.0092 -0.9958 -0.0912
vn 0.0192 -0.9841 -0.1763
vn 0.0171 -0.9659 -0.2585
vn 0.0000 -1.0000 0.0000
vn 0.0000 -1.0000 -0.0019
vn 0.0027 -0.9987 -0.0501
vn 0.0144 -0.9929 -0.1182
vn 0.0258 -0.9824 -0.1849
vn 0.0352 -0.9677 -0.2494
vn 0.0005 -0.9997 -0.0244
vn 0.0062 -0.9969 -0.0782
vn 0.0138 -0.9912 -0.1316
vn 0.0201 -0.9827 -0.1840
vn 0.0248 -0.9717 -0.2350
vn 0.0000 -1.0000 -0.0091
vn 0.0019 -0.9988 -0.0493
vn 0.0067 -0.9957 -0.0919
vn 0.0106 -0.9909 -0.1339
vn 0.0133 -0.9844 -0.1752
vn 0.0151 -0.9764 -0.2156
vn 0.0004 -0.9995 -0.0312
vn 0.0036 -0.9979 -0.0644
vn 0.0064 -0.9952 -0.0974
vn 0.0084 -0.9915 -0.1299
vn 0.0096 -0.9868 -0.1619
vn 0.0099 -0.9811 -0.1932
vn 0.0012 -0.9992 -0.0410
vn 0.0026 -0.9978 -0.0669
vn 0.0033 -0.9957 -0.0926
vn 0.0034 -0.9930 -0.1179
vn 0.0029 -0.9898 -0.1428
vn 0.0017 -0.9859 -0.1671
vn 0.0007 -0.9992 -0.0408
vn 0.0008 -0.9981 -0.0611
vn 0.0004 -0.9967 -0.0810
vn -0.0005 -0.9949 -0.1006
vn -0.0020 -0.9928 -0.1197
vn -0.0040 -0.9904 -0.1383
vn 0.0006 -0.9993 -0.0379
vn 0.0004 -0.9986 -0.0528
vn -0.0003 -0.9977 -0.0673
vn -0.0015 -0.9967 -0.0815
vn -0.0031 -0.9954 -0.0953
vn -0.0053 -0.9941 -0.1085
vn -0.0029 -1.0000 0.0000
vn -0.0065 -1.0000 -0.0006
vn -0.0114 -0.9999 -0.0043
vn -0.0167 -0.9991 -0.0377
vn -0.0191 -0.9957 -0.0904
vn -0.0174 -0.9899 -0.1409
vn 0.0000 -1.0000 -0.0049
vn 0.0009 -0.9990 -0.0443
vn 0.0027 -0.9959 -0.0902
vn 0.0043 -0.9908 -0.1355
vn 0.0002 -0.9999 -0.0134
vn 0.0016 -0.9986 -0.0534
vn 0.0032 -0.9956 -0.0939
vn 0.0047 -0.9910 -0.1340
vn 0.0000 -1.0000 -0.0027
vn 0.0007 -0.9995 -0.0309
vn 0.0028 -0.9979 -0.0654
vn 0.0048 -0.9950 -0.0997
vn 0.0066 -0.9910 -0.1336
vn 0.0000 -1.0000 -0.0013
vn 0.0003 -0.9997 -0.0226
vn 0.0022 -0.9987 -0.0506
vn 0.0043 -0.9969 -0.0785
vn 0.0062 -0.9943 -0.1062
vn 0.0080 -0.9910 -0.1337
vn 0.0004 -0.9996 -0.0289
vn 0.0022 -0.9987 -0.0502
vn 0.0042 -0.9974 -0.0714
vn 0.0061 -0.9957 -0.0924
vn 0.0079 -0.9935 -0.1134
vn 0.0094 -0.9909 -0.1341
vn 0.0070 -0.9963 -0.0857
vn 0.0098 -0.9953 -0.0965
vn 0.0124 -0.9941 -0.1074
vn 0.0147 -0.9929 -0.1181
vn 0.0168 -0.9915 -0.1289
vn 0.0186 -0.9900 -0.1395
vn 0.0490 -0.9810 0.1878
vn 0.0116 -0.9963 0.0854
vn -0.0537 -0.9971 -0.0538
vn 0.0005 -0.9918 -0.1280
vn -0.0099 -0.9876 -0.1564
vn -0.1636 -0.8992 -0.4059
vn -0.0108 -0.9946 0.1030
vn -0.0005 -0.9964 0.0853
vn 0.0116 -0.9985 -0.0538
vn 0.0413 -0.9909 -0.1279
vn 0.0476 -0.9809 -0.1888
vn 0.0553 -0.8987 -0.4350
vn 0.0320 -0.9975 0.0626
vn 0.0241 -0.9951 0.0955
vn 0.0147 -0.9959 0.0897
vn 0.0067 -0.9980 0.0625
vn 0.0010 -0.9999 0.0148
vn 0.0002 -0.9989 -0.0474
vn 0.0874 -0.8853 -0.4567
vn 0.1828 -0.9389 -0.2916
vn 0.0577 -0.9951 -0.0798
vn 0.1441 -0.9770 -0.1571
vn 0.0523 -0.9863 -0.1562
vn 0.0591 -0.9098 -0.4107
vn 0.0577 -0.8819 -0.4679
vn 0.0685 -0.8813 -0.4676
vn 0.0769 -0.9050 -0.4184
vn 0.0610 -0.9656 -0.2528
vn 0.0646 -0.9654 -0.2527
vn 0.0459 -0.9296 -0.3658
vn 0.0934 -0.9945 -0.0472
vn -0.0710 -0.9848 -0.1584
vn 0.0946 -0.9954 -0.0177
vn 0.0654 -0.9977 0.0149
vn -0.0476 -0.9957 -0.0798
vn 0.0546 -0.9979 0.0354
vn 0.1700 -0.9805 -0.0990
vn -0.1769 -0.9399 -0.2919
vn 0.1455 -0.9865 -0.0753
vn 0.0500 -0.8613 -0.5056
vn 0.0962 -0.8584 -0.5039
vn 0.0958 -0.8570 -0.5062
vn 0.0692 -0.9454 -0.3186
vn 0.0518 -0.8989 -0.4351
vn 0.0569 -0.8795 -0.4725
vn 0.0362 -0.9682 -0.2475
vn 0.0449 -0.9810 -0.1888
vn 0.0551 -0.9555 -0.2898
vn 0.0467 -0.9942 -0.0966
vn -0.0586 -0.9061 -0.4189
vn 0.1931 -0.9568 -0.2172
vn -0.1106 -0.9692 -0.2200
vn -0.1698 -0.9171 -0.3608
vn 0.0514 -0.9921 -0.1147
vn -0.0492 -0.9922 -0.1147
vn 0.0173 -0.9998 0.0042
vn -0.1044 -0.8563 -0.5058
vn 0.1677 -0.9226 -0.3473
vn -0.2009 -0.9168 -0.3451
vn 0.0595 -0.8762 -0.4782
vn 0.0602 -0.8791 -0.4728
vn 0.0570 -0.8893 -0.4538
vn -0.0122 0.9999 0.0000
vn 0.0060 -0.9971 -0.0761
vn 0.0122 -0.9999 0.0000
vn 0.0206 -0.9878 -0.1546
vn 0.0110 -0.9869 -0.1608
vn 0.0095 -0.9859 -0.1670
vn 0.0081 -0.9848 -0.1734
vn 0.0053 -0.9819 -0.1895
vn -0.0091 -0.9926 -0.1212
vn -0.0102 -0.9876 -0.1564
vn -0.0090 -0.9816 -0.1908
vn -0.0019 -0.9746 -0.2238
vn 0.0081 -0.9669 -0.2549
vn 0.0144 -0.9586 -0.2843
vn 0.0271 -0.9499 -0.3114
vn 0.0415 -0.9410 -0.3359
vn 0.0028 -0.9015 -0.4327
vn -0.0012 -0.9015 -0.4328
vn -0.0060 -0.8907 -0.4545
vn -0.0490 -0.9935 0.1031
vn -0.0130 -0.9977 0.0672
vn -0.0153 -0.9993 -0.0344
vn -0.0224 -0.9846 -0.1732
vn -0.0149 -0.9724 -0.2329
vn -0.0149 -0.9568 -0.2902
vn -0.0046 -0.9358 -0.3525
vn -0.0022 -0.9476 -0.3194
vn -0.0002 -1.0000 0.0004
vn -0.0001 -1.0000 0.0008
vn 0.0025 -1.0000 0.0002
vn 0.0101 -0.9965 -0.0830
vn 0.0138 -0.9724 -0.2329
vn 0.0100 -0.9358 -0.3524
vn 0.0003 -1.0000 0.0000
vn 0.0069 -0.9999 -0.0133
vn 0.0169 -0.9957 -0.0912
vn 0.0265 -0.9840 -0.1763
vn 0.0347 -0.9654 -0.2584
vn 0.0032 -1.0000 -0.0019
vn 0.0091 -0.9987 -0.0501
vn 0.0150 -0.9929 -0.1182
vn 0.0200 -0.9826 -0.1849
vn 0.0240 -0.9681 -0.2495
vn 0.0012 -1.0000 0.0000
vn 0.0047 -0.9997 -0.0244
vn 0.0081 -0.9969 -0.0782
vn 0.0108 -0.9912 -0.1316
vn 0.0127 -0.9828 -0.1840
vn 0.0139 -0.9719 -0.2350
vn 0.0029 -1.0000 -0.0091
vn 0.0051 -0.9988 -0.0494
vn 0.0069 -0.9957 -0.0919
vn 0.0081 -0.9910 -0.1339
vn 0.0087 -0.9845 -0.1752
vn 0.0087 -0.9764 -0.2156
vn 0.0022 -0.9995 -0.0312
vn 0.0028 -0.9979 -0.0644
vn 0.0029 -0.9952 -0.0974
vn 0.0024 -0.9915 -0.1299
vn 0.0015 -0.9868 -0.1619
vn 0.0000 -0.9812 -0.1932
vn 0.0007 -0.9992 -0.0410
vn 0.0003 -0.9978 -0.0669
vn -0.0007 -0.9957 -0.0926
vn -0.0020 -0.9930 -0.1179
vn -0.0039 -0.9898 -0.1428
vn -0.0062 -0.9859 -0.1671
vn 0.0003 -0.9992 -0.0408
vn -0.0004 -0.9981 -0.0611
vn -0.0015 -0.9967 -0.0810
vn -0.0030 -0.9949 -0.1006
vn -0.0050 -0.9928 -0.1197
vn -0.0074 -0.9904 -0.1383
vn -0.0062 -0.9993 -0.0379
vn -0.0106 -0.9986 -0.0527
vn -0.0159 -0.9976 -0.0673
vn -0.0194 -0.9965 -0.0814
vn -0.0194 -0.9953 -0.0952
vn -0.0159 -0.9940 -0.1085
vn -0.0000 -1.0000 -0.0006
vn 0.0001 -1.0000 -0.0043
vn 0.0013 -0.9993 -0.0378
vn 0.0027 -0.9959 -0.0904
vn 0.0040 -0.9900 -0.1410
vn 0.0007 -1.0000 -0.0049
vn 0.0021 -0.9990 -0.0443
vn 0.0034 -0.9959 -0.0902
vn 0.0046 -0.9908 -0.1355
vn 0.0002 -1.0000 0.0000
vn 0.0016 -0.9999 -0.0134
vn 0.0033 -0.9986 -0.0534
vn 0.0050 -0.9956 -0.0939
vn 0.0066 -0.9910 -0.1340
vn 0.0001 -1.0000 0.0000
vn 0.0012 -1.0000 -0.0027
vn 0.0029 -0.9995 -0.0309
vn 0.0047 -0.9978 -0.0654
vn 0.0063 -0.9950 -0.0997
vn 0.0080 -0.9910 -0.1336
vn 0.0016 -1.0000 -0.0013
vn 0.0031 -0.9997 -0.0226
vn 0.0047 -0.9987 -0.0506
vn 0.0063 -0.9969 -0.0785
vn 0.0079 -0.9943 -0.1062
vn 0.0094 -0.9910 -0.1337
vn 0.0085 -0.9995 -0.0289
vn 0.0101 -0.9987 -0.0502
vn 0.0119 -0.9974 -0.0714
vn 0.0138 -0.9956 -0.0924
vn 0.0159 -0.9934 -0.1134
vn 0.0182 -0.9908 -0.1341
vn 0.1023 -0.9928 0.0623
vn 0.0231 -0.9917 0.1264
vn 0.0247 -0.9951 0.0955
vn -0.0020 -0.9995 0.0328
vn 0.0142 -0.9959 0.0897
vn -0.0298 -0.9816 0.1887
vn -0.0026 -0.9977 0.0673
vn -0.0103 -0.9919 0.1263
vn 0.0130 -0.9993 -0.0342
vn 0.0011 -0.9995 0.0328
vn 0.0285 -0.9996 0.0000
vn 0.0186 -0.9998 0.0000
vn 0.0092 -1.0000 0.0000
vn 0.0026 -1.0000 0.0000
vn 0.0014 -0.9994 0.0353
vn 0.0007 -0.9998 -0.0178
vn 0.0034 -1.0000 0.0000
vn 0.0284 -0.9845 -0.1731
vn 0.0190 -0.9873 -0.1575
vn 0.0191 -0.9951 -0.0967
vn 0.0517 -0.9967 0.0626
vn -0.0200 0.9885 0.1501
vn -0.0045 0.9968 0.0795
vn -0.0031 0.9974 0.0718
vn -0.0101 0.9957 0.0924
vn -0.0021 0.9977 0.0674
vn -0.0010 0.9979 0.0655
vn 0.0000 0.9974 0.0718
vn 0.0114 0.9967 0.0807
vn 0.0124 0.9949 0.0999
vn 0.0029 0.9978 0.0668
vn 0.0007 0.9978 0.0668
vn 0.0000 0.9968 0.0795
vn -0.0004 0.9957 0.0924
vn -0.0029 0.9902 0.1395
vn 0.0118 0.9930 0.1174
vn -0.0042 0.9917 0.1289
vn -0.0053 0.9930 0.1182
vn 0.0000 0.9977 0.0674
vn -0.0062 0.9942 0.1074
vn 0.0080 0.9915 0.1296
vn -0.0070 0.9963 0.0857
vn -0.0067 0.9953 0.0965
vn 0.0000 0.9979 0.0655
vn -0.0007 0.9950 0.0999
vn -0.0006 0.9967 0.0807
vn 0.0034 0.9909 0.1343
vn -0.0012 0.9931 0.1175
vn 0.0016 0.9907 0.1360
vn -0.0004 0.9916 0.1296
vn 0.0000 0.9909 0.1343
vn -0.0023 0.9910 0.1338
vn 0.0000 0.9907 0.1360
vn 0.0000 0.9910 0.1338
vn 0.0003 0.9917 0.1288
vn -0.0058 0.9917 0.1288
vn 0.0722 0.9814 0.1779
vn 0.0176 0.9838 0.1783
vn 0.0497 0.9849 0.1659
vn -0.1059 0.9939 -0.0315
vn 0.0392 0.9947 -0.0953
vn -0.1458 0.9716 0.1866
vn 0.0536 0.9847 0.1659
vn -0.0823 0.8972 0.4338
vn -0.2012 0.9514 0.2332
vn -0.0347 0.9994 0.0000
vn -0.0238 0.9992 -0.0315
s off
f 52//1 8//1 163//1
f 58//2 181//2 180//2
f 58//3 182//3 162//3
f 70//4 3//4 41//4
f 76//5 24//5 70//5
f 82//6 23//6 76//6
f 88//7 22//7 82//7
f 94//8 21//8 88//8
f 100//9 20//9 94//9
f 106//10 19//10 100//10
f 112//11 18//11 106//11
f 118//12 17//12 112//12
f 124//13 16//13 118//13
f 130//14 15//14 124//14
f 136//15 14//15 130//15
f 142//16 13//16 136//16
f 148//17 12//17 142//17
f 154//18 11//18 148//18
f 160//19 165//19 10//19
f 39//20 155//20 149//20
f 155//21 150//21 149//21
f 156//22 151//22 150//22
f 157//23 152//23 151//23
f 158//24 173//24 153//24
f 174//25 160//25 154//25
f 39//26 143//26 38//26
f 149//27 144//27 143//27
f 150//28 145//28 144//28
f 151//29 146//29 145//29
f 152//30 147//30 146//30
f 153//31 148//31 147//31
f 38//32 137//32 37//32
f 143//33 138//33 137//33
f 144//34 139//34 138//34
f 145//35 140//35 139//35
f 146//36 141//36 140//36
f 147//37 142//37 141//37
f 37//32 131//32 36//32
f 137//38 132//38 131//38
f 138//39 133//39 132//39
f 139//40 134//40 133//40
f 140//41 135//41 134//41
f 141//42 136//42 135//42
f 36//43 125//43 35//43
f 131//44 126//44 125//44
f 132//45 127//45 126//45
f 133//46 128//46 127//46
f 134//47 129//47 128//47
f 135//48 130//48 129//48
f 35//49 119//49 34//49
f 125//50 120//50 119//50
f 126//51 121//51 120//51
f 127//52 122//52 121//52
f 128//53 123//53 122//53
f 129//54 124//54 123//54
f 34//55 113//55 33//55
f 119//56 114//56 113//56
f 120//57 115//57 114//57
f 121//58 116//58 115//58
f 122//59 117//59 116//59
f 123//60 118//60 117//60
f 33//61 107//61 32//61
f 113//62 108//62 107//62
f 114//63 109//63 108//63
f 115//64 110//64 109//64
f 116//65 111//65 110//65
f 117//66 112//66 111//66
f 32//67 101//67 31//67
f 107//68 102//68 101//68
f 108//69 103//69 102//69
f 109//70 104//70 103//70
f 110//71 105//71 104//71
f 111//72 106//72 105//72
f 31//73 95//73 30//73
f 101//74 96//74 95//74
f 102//75 97//75 96//75
f 103//76 98//76 97//76
f 104//77 99//77 98//77
f 105//78 100//78 99//78
f 30//32 89//32 29//32
f 95//32 90//32 89//32
f 96//79 91//79 90//79
f 97//80 92//80 91//80
f 98//81 93//81 92//81
f 99//82 94//82 93//82
f 29//32 83//32 28//32
f 89//32 84//32 83//32
f 90//83 85//83 84//83
f 91//84 86//84 85//84
f 92//85 87//85 86//85
f 93//86 88//86 87//86
f 28//32 77//32 27//32
f 83//87 78//87 77//87
f 84//88 79//88 78//88
f 85//89 80//89 79//89
f 86//90 81//90 80//90
f 87//91 82//91 81//91
f 27//92 71//92 26//92
f 77//93 72//93 71//93
f 78//94 73//94 72//94
f 79//95 74//95 73//95
f 80//96 75//96 74//96
f 81//97 76//97 75//97
f 26//98 65//98 25//98
f 71//99 66//99 65//99
f 72//100 67//100 66//100
f 73//101 68//101 67//101
f 74//102 69//102 68//102
f 75//103 70//103 69//103
f 25//104 46//104 1//104
f 65//105 45//105 46//105
f 66//106 44//106 45//106
f 67//107 43//107 44//107
f 68//108 42//108 43//108
f 69//109 41//109 42//109
f 5//110 59//110 53//110
f 60//111 54//111 166//111
f 61//112 55//112 167//112
f 168//113 175//113 56//113
f 56//114 183//114 169//114
f 57//115 184//115 170//115
f 40//116 53//116 155//116
f 166//117 54//117 156//117
f 167//118 55//118 157//118
f 178//119 168//119 56//119
f 56//120 185//120 178//120
f 57//121 186//121 179//121
f 2//122 59//122 7//122
f 47//123 60//123 59//123
f 48//124 61//124 60//124
f 49//125 62//125 61//125
f 50//126 63//126 171//126
f 51//127 64//127 172//127
f 58//128 162//128 181//128
f 58//129 177//129 182//129
f 56//130 175//130 183//130
f 57//131 176//131 184//131
f 56//132 169//132 185//132
f 57//133 170//133 186//133
f 186//134 180//134 160//134
f 186//135 170//135 180//135
f 170//136 58//136 180//136
f 185//137 179//137 159//137
f 185//138 169//138 179//138
f 169//139 57//139 179//139
f 184//140 172//140 64//140
f 184//141 176//141 172//141
f 176//142 63//142 172//142
f 183//143 171//143 63//143
f 183//144 175//144 171//144
f 175//145 62//145 171//145
f 182//146 163//146 8//146
f 182//147 177//147 163//147
f 177//148 64//148 163//148
f 181//149 164//149 9//149
f 181//150 162//150 164//150
f 162//151 6//151 164//151
f 179//152 174//152 159//152
f 179//153 186//153 174//153
f 186//154 160//154 174//154
f 178//155 173//155 158//155
f 178//156 185//156 173//156
f 185//157 159//157 173//157
f 55//158 168//158 178//158
f 170//159 177//159 58//159
f 170//160 184//160 177//160
f 184//161 64//161 177//161
f 169//162 176//162 57//162
f 169//163 183//163 176//163
f 183//164 63//164 176//164
f 175//165 55//165 62//165
f 162//166 161//166 6//166
f 162//167 182//167 161//167
f 182//168 8//168 161//168
f 180//169 165//169 160//169
f 180//170 181//170 165//170
f 181//171 9//171 165//171
f 51//172 50//172 8//172
f 163//173 64//173 52//173
f 52//174 4//174 8//174
f 70//175 24//175 3//175
f 76//176 23//176 24//176
f 82//177 22//177 23//177
f 88//178 21//178 22//178
f 94//9 20//9 21//9
f 100//179 19//179 20//179
f 106//180 18//180 19//180
f 112//181 17//181 18//181
f 118//182 16//182 17//182
f 124//183 15//183 16//183
f 130//184 14//184 15//184
f 136//185 13//185 14//185
f 142//186 12//186 13//186
f 148//187 11//187 12//187
f 154//188 10//188 11//188
f 10//189 154//189 160//189
f 165//190 9//190 10//190
f 39//191 40//191 155//191
f 155//192 156//192 150//192
f 156//193 157//193 151//193
f 157//194 158//194 152//194
f 153//195 152//195 158//195
f 173//196 159//196 153//196
f 154//197 153//197 159//197
f 159//198 174//198 154//198
f 39//199 149//199 143//199
f 149//200 150//200 144//200
f 150//201 151//201 145//201
f 151//202 152//202 146//202
f 152//203 153//203 147//203
f 153//204 154//204 148//204
f 38//32 143//32 137//32
f 143//205 144//205 138//205
f 144//206 145//206 139//206
f 145//207 146//207 140//207
f 146//208 147//208 141//208
f 147//209 148//209 142//209
f 37//32 137//32 131//32
f 137//210 138//210 132//210
f 138//211 139//211 133//211
f 139//212 140//212 134//212
f 140//213 141//213 135//213
f 141//214 142//214 136//214
f 36//215 131//215 125//215
f 131//216 132//216 126//216
f 132//217 133//217 127//217
f 133//218 134//218 128//218
f 134//219 135//219 129//219
f 135//220 136//220 130//220
f 35//221 125//221 119//221
f 125//222 126//222 120//222
f 126//223 127//223 121//223
f 127//224 128//224 122//224
f 128//225 129//225 123//225
f 129//226 130//226 124//226
f 34//227 119//227 113//227
f 119//228 120//228 114//228
f 120//229 121//229 115//229
f 121//230 122//230 116//230
f 122//231 123//231 117//231
f 123//232 124//232 118//232
f 33//233 113//233 107//233
f 113//234 114//234 108//234
f 114//235 115//235 109//235
f 115//236 116//236 110//236
f 116//237 117//237 111//237
f 117//238 118//238 112//238
f 32//239 107//239 101//239
f 107//240 108//240 102//240
f 108//241 109//241 103//241
f 109//242 110//242 104//242
f 110//243 111//243 105//243
f 111//244 112//244 106//244
f 31//245 101//245 95//245
f 101//246 102//246 96//246
f 102//247 103//247 97//247
f 103//248 104//248 98//248
f 104//249 105//249 99//249
f 105//250 106//250 100//250
f 30//32 95//32 89//32
f 95//251 96//251 90//251
f 96//252 97//252 91//252
f 97//253 98//253 92//253
f 98//254 99//254 93//254
f 99//255 100//255 94//255
f 29//32 89//32 83//32
f 89//32 90//32 84//32
f 90//256 91//256 85//256
f 91//257 92//257 86//257
f 92//258 93//258 87//258
f 93//259 94//259 88//259
f 28//32 83//32 77//32
f 83//260 84//260 78//260
f 84//261 85//261 79//261
f 85//262 86//262 80//262
f 86//263 87//263 81//263
f 87//264 88//264 82//264
f 27//265 77//265 71//265
f 77//266 78//266 72//266
f 78//267 79//267 73//267
f 79//268 80//268 74//268
f 80//269 81//269 75//269
f 81//270 82//270 76//270
f 26//271 71//271 65//271
f 71//272 72//272 66//272
f 72//273 73//273 67//273
f 73//274 74//274 68//274
f 74//275 75//275 69//275
f 75//276 76//276 70//276
f 25//277 65//277 46//277
f 65//278 66//278 45//278
f 66//279 67//279 44//279
f 67//280 68//280 43//280
f 68//281 69//281 42//281
f 69//282 70//282 41//282
f 5//283 7//283 59//283
f 166//284 53//284 60//284
f 53//285 59//285 60//285
f 167//286 54//286 61//286
f 54//287 60//287 61//287
f 40//288 5//288 53//288
f 156//289 155//289 166//289
f 155//290 53//290 166//290
f 157//291 156//291 167//291
f 156//292 54//292 167//292
f 2//293 47//293 59//293
f 47//294 48//294 60//294
f 48//295 49//295 61//295
f 49//296 50//296 62//296
f 171//297 62//297 50//297
f 50//265 51//265 63//265
f 172//298 63//298 51//298
f 51//299 52//299 64//299
f 158//300 157//300 178//300
f 157//301 55//301 178//301
f 168//302 55//302 175//302
f 55//303 61//303 62//303
f 41//304 3//304 24//304
f 24//305 23//305 26//305
f 23//306 22//306 27//306
f 24//307 25//307 41//307
f 22//308 21//308 28//308
f 21//309 20//309 29//309
f 22//310 28//310 27//310
f 19//311 18//311 31//311
f 18//312 17//312 32//312
f 19//313 31//313 30//313
f 20//314 19//314 30//314
f 26//315 23//315 27//315
f 25//316 24//316 26//316
f 41//317 25//317 42//317
f 17//318 16//318 33//318
f 43//319 42//319 25//319
f 44//320 43//320 25//320
f 28//321 21//321 29//321
f 44//322 25//322 45//322
f 16//323 15//323 34//323
f 25//324 1//324 46//324
f 46//325 45//325 25//325
f 29//326 20//326 30//326
f 32//327 17//327 33//327
f 31//328 18//328 32//328
f 15//329 14//329 35//329
f 33//330 16//330 34//330
f 14//331 13//331 36//331
f 35//332 34//332 15//332
f 35//333 14//333 36//333
f 13//334 12//334 37//334
f 36//335 13//335 37//335
f 38//336 37//336 12//336
f 39//337 38//337 11//337
f 11//338 38//338 12//338
f 10//339 9//339 40//339
f 9//340 164//340 40//340
f 39//341 11//341 10//341
f 7//342 5//342 8//342
f 5//343 40//343 8//343
f 8//344 40//344 161//344
f 40//345 39//345 10//345
f 164//346 6//346 161//346
f 164//347 161//347 40//347
f 47//348 2//348 7//348
f 50//172 49//172 8//172
f 49//348 48//348 7//348
f 48//348 47//348 7//348
f 8//172 4//172 52//172
f 49//349 7//349 8//349
f 52//172 51//172 8//172
