# Blender v3.0.0 OBJ File: 'Windmill.blend'
# www.blender.org
o StraightBladeFlatDetailed_Plane.001
v 0.000000 0.000000 0.000000
v -0.228770 0.000000 -0.121446
v -0.334784 0.000000 -0.121446
v -0.440799 0.000000 -0.121446
v -0.546813 0.000000 -0.121446
v -0.652828 0.000000 -0.121446
v -0.758842 0.000000 -0.121446
v -0.864856 0.000000 -0.121446
v -0.970871 0.000000 -0.121446
v -1.076885 0.000000 -0.121446
v -1.182899 0.000000 -0.121446
v -1.288914 0.000000 -0.121446
v -1.394928 0.000000 -0.121446
v -1.500942 0.000000 -0.121446
v -1.606957 0.000000 -0.121446
v -1.712971 0.000000 -0.121446
v -1.818986 0.000000 -0.121446
v -1.818986 0.000000 -0.070341
v -1.712971 0.000000 -0.057780
v -1.606957 0.000000 -0.047072
v -1.500942 0.000000 -0.038087
v -1.394928 0.000000 -0.031547
v -1.288914 0.000000 -0.023845
v -1.182899 0.000000 -0.014960
v -1.076885 0.000000 -0.009295
v -0.970871 0.000000 -0.003711
v -0.864856 0.000000 0.006005
v -0.758842 0.000000 0.020737
v -0.652828 0.000000 0.037367
v -0.546813 0.000000 0.058961
v -0.440799 0.000000 0.085725
v -0.334784 0.000000 0.112992
v -0.228770 0.000000 0.145393
v -0.073784 0.000000 0.028668
v -0.073784 0.000000 -0.121446
v -0.122756 0.000000 0.175166
v -0.122756 0.000000 -0.121446
v 0.075000 0.000000 0.036488
v -1.925000 0.000000 -0.093327
v 0.075000 0.000000 -0.121446
v -1.925000 0.000000 -0.121446
vt 1.000000 0.000000
vt 0.925608 1.000000
vt 0.925608 0.000000
vt 0.500000 0.000000
vt 0.470588 1.000000
vt 0.470588 0.000000
vt 0.500000 1.000000
vt 0.029412 0.000000
vt 0.000000 1.000000
vt 0.000000 0.000000
vt 0.058824 0.000000
vt 0.029412 1.000000
vt 0.088235 0.000000
vt 0.058824 1.000000
vt 0.117647 0.000000
vt 0.088235 1.000000
vt 0.147059 0.000000
vt 0.117647 1.000000
vt 0.176471 0.000000
vt 0.147059 1.000000
vt 0.205882 0.000000
vt 0.176471 1.000000
vt 0.235294 0.000000
vt 0.205882 1.000000
vt 0.264706 0.000000
vt 0.235294 1.000000
vt 0.294118 0.000000
vt 0.264706 1.000000
vt 0.323529 0.000000
vt 0.294118 1.000000
vt 0.352941 0.000000
vt 0.323529 1.000000
vt 0.382353 0.000000
vt 0.352941 1.000000
vt 0.411765 0.000000
vt 0.382353 1.000000
vt 0.441176 0.000000
vt 0.411765 1.000000
vt 0.441176 1.000000
vt 1.000000 1.000000
vn 0.0000 -1.0000 0.0000
s off
f 40/1/1 34/2/1 35/3/1
f 37/4/1 33/5/1 2/6/1
f 37/4/1 34/2/1 36/7/1
f 17/8/1 39/9/1 41/10/1
f 16/11/1 18/12/1 17/8/1
f 15/13/1 19/14/1 16/11/1
f 14/15/1 20/16/1 15/13/1
f 13/17/1 21/18/1 14/15/1
f 12/19/1 22/20/1 13/17/1
f 11/21/1 23/22/1 12/19/1
f 10/23/1 24/24/1 11/21/1
f 9/25/1 25/26/1 10/23/1
f 8/27/1 26/28/1 9/25/1
f 7/29/1 27/30/1 8/27/1
f 6/31/1 28/32/1 7/29/1
f 5/33/1 29/34/1 6/31/1
f 4/35/1 30/36/1 5/33/1
f 3/37/1 31/38/1 4/35/1
f 2/6/1 32/39/1 3/37/1
f 40/1/1 38/40/1 34/2/1
f 37/4/1 36/7/1 33/5/1
f 37/4/1 35/3/1 34/2/1
f 17/8/1 18/12/1 39/9/1
f 16/11/1 19/14/1 18/12/1
f 15/13/1 20/16/1 19/14/1
f 14/15/1 21/18/1 20/16/1
f 13/17/1 22/20/1 21/18/1
f 12/19/1 23/22/1 22/20/1
f 11/21/1 24/24/1 23/22/1
f 10/23/1 25/26/1 24/24/1
f 9/25/1 26/28/1 25/26/1
f 8/27/1 27/30/1 26/28/1
f 7/29/1 28/32/1 27/30/1
f 6/31/1 29/34/1 28/32/1
f 5/33/1 30/36/1 29/34/1
f 4/35/1 31/38/1 30/36/1
f 3/37/1 32/39/1 31/38/1
f 2/6/1 33/5/1 32/39/1
